<svg width="51" height="51" viewBox="0 0 51 51" fill="none" xmlns="http://www.w3.org/2000/svg">
<g clip-path="url(#clip0_2_99)">
<path d="M18.9874 43.7118C18.9874 44.2751 18.5307 44.7318 17.9674 44.7318H1.03544C0.471935 44.7318 0.0154415 44.2751 0.0154415 43.7118C0.0154415 43.1483 0.471935 42.6918 1.03544 42.6918H17.9674C18.2381 42.6918 18.4974 42.7991 18.6886 42.9907C18.8799 43.1819 18.9874 43.4412 18.9874 43.7118ZM1.03544 39.8074H12.5046C13.0678 39.8074 13.5246 39.3506 13.5246 38.7874C13.5246 38.2242 13.0678 37.7674 12.5046 37.7674H1.03544C0.471935 37.7674 0.0154415 38.2242 0.0154415 38.7874C0.0154415 39.3506 0.471935 39.8074 1.03544 39.8074ZM1.03544 34.8887H6.49805C7.06127 34.8887 7.51805 34.4322 7.51805 33.8687C7.51805 33.3055 7.06127 32.8487 6.49805 32.8487H1.03544C0.471935 32.8487 0.0154415 33.3055 0.0154415 33.8687C0.0154415 34.4322 0.471935 34.8887 1.03544 34.8887ZM49.825 42.0742C47.4505 44.4486 39.7379 44.6299 37.472 44.6299H36.9336C32.8874 44.6299 25.4418 44.0633 21.1746 40.3288H21.1749C19.9576 39.2439 18.8664 38.0256 17.9221 36.6965C16.9949 35.3091 15.8008 34.1206 14.4088 33.2002C13.6793 32.8519 12.9021 32.6151 12.1024 32.4976C10.9757 32.2889 9.87143 31.9742 8.80444 31.557C5.04749 29.9647 0.49144 27.1255 0.026611 24.3432V24.2581C-0.426757 18.6652 5.00764 10.9471 9.09368 7.87549C10.8562 6.54956 12.335 6.09617 13.4853 6.53244C15.5196 7.30881 16.0014 8.97483 16.4263 10.4482C16.8117 11.7913 17.1743 13.0548 18.5625 14.1599C19.9511 15.2647 22.2799 14.8737 24.5296 14.1201C24.81 11.9762 26.0126 10.0617 27.8219 8.87838C28.061 8.73523 28.3481 8.69595 28.6168 8.76994C28.8854 8.84365 29.1123 9.02409 29.2443 9.26942L30.8309 12.2104C30.8309 12.2104 30.8309 12.2614 30.8648 12.2898L30.8933 12.3465C33.8115 20.2799 37.2967 29.0577 38.1522 30.1455C39.3717 30.6464 40.6163 31.0832 41.8811 31.4544C45.7513 32.6841 48.3579 33.5738 49.2928 34.4916C50.2064 35.4823 50.7852 36.7351 50.9475 38.073C51.2292 39.5091 50.8128 40.9935 49.8253 42.0739L49.825 42.0742ZM48.7654 40.0172C47.8191 40.0738 46.2493 40.1475 44.3171 40.1475C39.013 40.1475 30.9944 39.6091 25.6795 36.7759C21.373 34.4639 19.2593 32.1574 16.3407 28.9671C12.5569 24.732 8.41456 20.8319 3.95862 17.3107C2.6893 19.6965 1.90157 22.1329 2.03759 24.0425C2.33215 25.5387 5.63032 28.0092 9.58559 29.6582C10.5359 30.0254 11.5186 30.3023 12.5206 30.4855C13.5654 30.6378 14.5757 30.9693 15.5072 31.4659C17.101 32.5085 18.4724 33.8565 19.5417 35.4327C20.4025 36.6502 21.3986 37.7661 22.5112 38.759C25.2596 41.1673 30.5182 42.5555 36.9383 42.5555C40.565 42.6122 46.8382 42.1306 48.374 40.6006H48.3737C48.5431 40.431 48.6762 40.2284 48.7648 40.0055L48.7654 40.0172Z" fill="#7261E1"/>
</g>
<defs>
<clipPath id="clip0_2_99">
<rect width="51" height="51" fill="white"/>
</clipPath>
</defs>
</svg>
