<svg width="24" height="24" viewBox="0 0 24 24" fill="none" xmlns="http://www.w3.org/2000/svg">
<circle cx="12" cy="12" r="12" fill="white"/>
<path d="M17.9801 4.66675H16.0201C15.1734 4.66675 14.6667 5.17341 14.6667 6.02008V7.98008C14.6667 8.82675 15.1734 9.33342 16.0201 9.33342H17.9801C18.8267 9.33342 19.3334 8.82675 19.3334 7.98008V6.02008C19.3334 5.17341 18.8267 4.66675 17.9801 4.66675ZM16.6734 8.38008C16.6534 8.40008 16.6067 8.42675 16.5734 8.42675L15.8801 8.52675C15.8601 8.53341 15.8334 8.53341 15.8134 8.53341C15.7134 8.53341 15.6267 8.50008 15.5667 8.43341C15.4867 8.35341 15.4534 8.24008 15.4734 8.12008L15.5734 7.42675C15.5801 7.39341 15.6001 7.34675 15.6201 7.32675L16.7534 6.19341C16.7734 6.24008 16.7934 6.29341 16.8134 6.34675C16.8401 6.40008 16.8667 6.44675 16.8934 6.49341C16.9134 6.53341 16.9401 6.57341 16.9667 6.60008C16.9934 6.64008 17.0201 6.68008 17.0401 6.70008C17.0534 6.72008 17.0601 6.72675 17.0667 6.73341C17.1267 6.80675 17.1934 6.87341 17.2534 6.92008C17.2667 6.93341 17.2801 6.94675 17.2867 6.94675C17.3201 6.97341 17.3601 7.00675 17.3867 7.02675C17.4267 7.05341 17.4601 7.08008 17.5001 7.10008C17.5467 7.12675 17.6001 7.15341 17.6534 7.18008C17.7067 7.20675 17.7601 7.22675 17.8067 7.24008L16.6734 8.38008ZM18.2667 6.78675L18.0534 7.00008C18.0401 7.02008 18.0201 7.02675 18.0001 7.02675C17.9934 7.02675 17.9867 7.02675 17.9801 7.02675C17.5001 6.88675 17.1201 6.50675 16.9801 6.02675C16.9734 6.00008 16.9801 5.97341 17.0001 5.95341L17.2201 5.73341C17.5801 5.37341 17.9201 5.38008 18.2734 5.73341C18.4534 5.91341 18.5401 6.08675 18.5401 6.26008C18.5334 6.43341 18.4467 6.60675 18.2667 6.78675Z" fill="#0CC25F"/>
<path d="M10 10.9199C10.8763 10.9199 11.5867 10.2095 11.5867 9.33325C11.5867 8.45696 10.8763 7.74658 10 7.74658C9.1237 7.74658 8.41333 8.45696 8.41333 9.33325C8.41333 10.2095 9.1237 10.9199 10 10.9199Z" fill="#0CC25F"/>
<path d="M17.9799 9.33325H17.6666V12.4066L17.5799 12.3333C17.0599 11.8866 16.2199 11.8866 15.6999 12.3333L12.9266 14.7133C12.4066 15.1599 11.5666 15.1599 11.0466 14.7133L10.8199 14.5266C10.3466 14.1133 9.59325 14.0733 9.05992 14.4333L6.56659 16.1066C6.41992 15.7333 6.33325 15.2999 6.33325 14.7933V9.20659C6.33325 7.32659 7.32659 6.33325 9.20659 6.33325H14.6666V6.01992C14.6666 5.75325 14.7133 5.52659 14.8199 5.33325H9.20659C6.77992 5.33325 5.33325 6.77992 5.33325 9.20659V14.7933C5.33325 15.5199 5.45992 16.1533 5.70659 16.6866C6.27992 17.9533 7.50659 18.6666 9.20659 18.6666H14.7933C17.2199 18.6666 18.6666 17.2199 18.6666 14.7933V9.17992C18.4733 9.28659 18.2466 9.33325 17.9799 9.33325Z" fill="#0CC25F"/>
</svg>
