<svg width="284" height="140" viewBox="0 0 284 140" fill="none" xmlns="http://www.w3.org/2000/svg">
<g filter="url(#filter0_d_95014_4823)">
<path d="M74 74C74 67.3726 79.3726 62 86 62H262C268.627 62 274 67.3726 274 74V122H86C79.3726 122 74 116.627 74 110V74Z" fill="#E6F3FF"/>
</g>
<g filter="url(#filter1_d_95014_4823)">
<path d="M10 27C10 15.9543 18.9543 7 30 7H90C101.046 7 110 15.9543 110 27V67H30C18.9543 67 10 58.0457 10 47V27Z" fill="#E6F3FF"/>
</g>
<path d="M146 84H254" stroke="#9ACEFF" stroke-width="8" stroke-linecap="round"/>
<path d="M146 100H254" stroke="#9ACEFF" stroke-width="8" stroke-linecap="round"/>
<circle cx="110" cy="92" r="16" fill="#9ACEFF"/>
<circle cx="36" cy="37" r="6" fill="#9ACEFF"/>
<circle cx="60" cy="37" r="6" fill="#9ACEFF"/>
<circle cx="84" cy="37" r="6" fill="#9ACEFF"/>
<defs>
<filter id="filter0_d_95014_4823" x="64" y="60" width="220" height="80" filterUnits="userSpaceOnUse" color-interpolation-filters="sRGB">
<feFlood flood-opacity="0" result="BackgroundImageFix"/>
<feColorMatrix in="SourceAlpha" type="matrix" values="0 0 0 0 0 0 0 0 0 0 0 0 0 0 0 0 0 0 127 0" result="hardAlpha"/>
<feOffset dy="8"/>
<feGaussianBlur stdDeviation="5"/>
<feComposite in2="hardAlpha" operator="out"/>
<feColorMatrix type="matrix" values="0 0 0 0 0.845898 0 0 0 0 0.925238 0 0 0 0 1 0 0 0 1 0"/>
<feBlend mode="normal" in2="BackgroundImageFix" result="effect1_dropShadow_95014_4823"/>
<feBlend mode="normal" in="SourceGraphic" in2="effect1_dropShadow_95014_4823" result="shape"/>
</filter>
<filter id="filter1_d_95014_4823" x="0" y="0" width="120" height="80" filterUnits="userSpaceOnUse" color-interpolation-filters="sRGB">
<feFlood flood-opacity="0" result="BackgroundImageFix"/>
<feColorMatrix in="SourceAlpha" type="matrix" values="0 0 0 0 0 0 0 0 0 0 0 0 0 0 0 0 0 0 127 0" result="hardAlpha"/>
<feOffset dy="3"/>
<feGaussianBlur stdDeviation="5"/>
<feComposite in2="hardAlpha" operator="out"/>
<feColorMatrix type="matrix" values="0 0 0 0 0.845898 0 0 0 0 0.925238 0 0 0 0 1 0 0 0 1 0"/>
<feBlend mode="normal" in2="BackgroundImageFix" result="effect1_dropShadow_95014_4823"/>
<feBlend mode="normal" in="SourceGraphic" in2="effect1_dropShadow_95014_4823" result="shape"/>
</filter>
</defs>
</svg>
