<svg width="333" height="281" viewBox="0 0 333 281" fill="none" xmlns="http://www.w3.org/2000/svg">
<path d="M330.75 276.006H2.25" stroke="#263238" stroke-linecap="round" stroke-linejoin="round"/>
<g opacity="0.3">
<path d="M277.567 28.4576H167.211V156.659H277.567V28.4576Z" fill="#263238" stroke="black" stroke-linecap="round" stroke-linejoin="round"/>
<path d="M272.315 34.1753H172.468V150.935H272.315V34.1753Z" fill="white" stroke="black" stroke-linecap="round" stroke-linejoin="round"/>
<path d="M232.918 52.2506L208.296 73.0308" stroke="black" stroke-linecap="round" stroke-linejoin="round"/>
<path d="M245.772 41.3967L235.384 50.1716" stroke="black" stroke-linecap="round" stroke-linejoin="round"/>
<path d="M216.23 58.9465L201.455 71.4157" stroke="black" stroke-linecap="round" stroke-linejoin="round"/>
<path d="M212.673 140.916L208.296 144.61" stroke="black" stroke-linecap="round" stroke-linejoin="round"/>
<path d="M245.772 112.976L215.13 138.837" stroke="black" stroke-linecap="round" stroke-linejoin="round"/>
<path d="M216.23 130.526L201.455 142.989" stroke="black" stroke-linecap="round" stroke-linejoin="round"/>
<path d="M226.048 97.3386C226.048 95.7854 224.56 94.5293 222.719 94.5293C220.879 94.5293 219.39 95.7854 219.39 97.3386C219.39 98.8918 220.879 100.148 222.719 100.148C224.56 100.148 226.048 98.8918 226.048 97.3386Z" fill="black" stroke="black" stroke-linecap="round" stroke-linejoin="round"/>
<path d="M272.315 96.9362H172.468V102.103H272.315V96.9362Z" fill="black" stroke="black" stroke-linecap="round" stroke-linejoin="round"/>
<path d="M280.816 20.7842H164.615V31.7436H280.816V20.7842Z" fill="black" stroke="black" stroke-linecap="round" stroke-linejoin="round"/>
<path d="M280.816 152.822H164.615V163.781H280.816V152.822Z" fill="black" stroke="black" stroke-linecap="round" stroke-linejoin="round"/>
<path d="M321.716 5.44373H123.069V8.72965H321.716V5.44373Z" fill="white" stroke="black" stroke-linecap="round" stroke-linejoin="round"/>
<path d="M137.954 2.70874H133.503C131.685 2.70874 130.211 3.95271 130.211 5.48724V173.052C130.211 174.586 131.685 175.83 133.503 175.83H137.954C139.772 175.83 141.247 174.586 141.247 173.052V5.48724C141.247 3.95271 139.772 2.70874 137.954 2.70874Z" fill="white" stroke="black" stroke-linecap="round" stroke-linejoin="round"/>
<path d="M148.344 2.70874H143.893C142.075 2.70874 140.601 3.95271 140.601 5.48724V173.052C140.601 174.586 142.075 175.83 143.893 175.83H148.344C150.162 175.83 151.636 174.586 151.636 173.052V5.48724C151.636 3.95271 150.162 2.70874 148.344 2.70874Z" fill="white" stroke="black" stroke-linecap="round" stroke-linejoin="round"/>
<path d="M158.728 2.70874H154.277C152.459 2.70874 150.984 3.95271 150.984 5.48724V173.052C150.984 174.586 152.459 175.83 154.277 175.83H158.728C160.546 175.83 162.02 174.586 162.02 173.052V5.48724C162.02 3.95271 160.546 2.70874 158.728 2.70874Z" fill="white" stroke="black" stroke-linecap="round" stroke-linejoin="round"/>
<path d="M169.118 2.70874H164.667C162.849 2.70874 161.375 3.95271 161.375 5.48724V173.052C161.375 174.586 162.849 175.83 164.667 175.83H169.118C170.936 175.83 172.41 174.586 172.41 173.052V5.48724C172.41 3.95271 170.936 2.70874 169.118 2.70874Z" fill="white" stroke="black" stroke-linecap="round" stroke-linejoin="round"/>
<path d="M280.771 2.70874H276.32C274.502 2.70874 273.028 3.95271 273.028 5.48724V173.052C273.028 174.586 274.502 175.83 276.32 175.83H280.771C282.591 175.83 284.065 174.586 284.065 173.052V5.48724C284.065 3.95271 282.591 2.70874 280.771 2.70874Z" fill="white" stroke="black" stroke-linecap="round" stroke-linejoin="round"/>
<path d="M291.161 2.70874H286.711C284.891 2.70874 283.417 3.95271 283.417 5.48724V173.052C283.417 174.586 284.891 175.83 286.711 175.83H291.161C292.979 175.83 294.453 174.586 294.453 173.052V5.48724C294.453 3.95271 292.979 2.70874 291.161 2.70874Z" fill="white" stroke="black" stroke-linecap="round" stroke-linejoin="round"/>
<path d="M301.545 2.70874H297.095C295.274 2.70874 293.801 3.95271 293.801 5.48724V173.052C293.801 174.586 295.274 175.83 297.095 175.83H301.545C303.363 175.83 304.837 174.586 304.837 173.052V5.48724C304.837 3.95271 303.363 2.70874 301.545 2.70874Z" fill="white" stroke="black" stroke-linecap="round" stroke-linejoin="round"/>
<path d="M311.935 2.70874H307.485C305.665 2.70874 304.191 3.95271 304.191 5.48724V173.052C304.191 174.586 305.665 175.83 307.485 175.83H311.935C313.753 175.83 315.227 174.586 315.227 173.052V5.48724C315.227 3.95271 313.753 2.70874 311.935 2.70874Z" fill="white" stroke="black" stroke-linecap="round" stroke-linejoin="round"/>
</g>
<g opacity="0.3">
<path d="M101.013 2.19531H13.4615V100.557H101.013V2.19531Z" stroke="black" stroke-linecap="round" stroke-linejoin="round"/>
<path d="M98.1603 5.40686H16.3213V97.3514H98.1603V5.40686Z" stroke="black" stroke-linecap="round" stroke-linejoin="round"/>
<path d="M16.3136 72.9264C25.4866 68.9164 45.3213 58.2294 50.7402 38.9655C55.0224 23.7487 61.2257 12.6347 70.6995 5.40686" stroke="black" stroke-linecap="round" stroke-linejoin="round"/>
<path d="M56.1371 97.3513C50.4837 81.8684 43.3859 51.8309 63.1985 31.8862C75.7006 19.2994 88.2099 12.0468 98.1675 7.87598" stroke="black" stroke-linecap="round" stroke-linejoin="round"/>
<path d="M21.7544 5.40686C25.56 9.41063 29.6809 16.3414 28.3756 26.9543C26.9824 38.3219 20.8745 44.7453 16.3136 48.0436" stroke="black" stroke-linecap="round" stroke-linejoin="round"/>
<path d="M88.261 97.3516C81.8595 89.1273 71.8211 90.365 64.9726 82.7163C56.3348 73.069 64.7159 58.7001 84.5359 52.0415C90.7319 49.9623 95.0949 46.9609 98.1599 43.8174" stroke="black" stroke-linecap="round" stroke-linejoin="round"/>
<path d="M16.3136 91.4667C22.319 83.7315 29.8496 76.4292 34.4691 80.7919C38.3186 84.4245 39.2427 91.0891 39.0814 97.3578" stroke="black" stroke-linecap="round" stroke-linejoin="round"/>
<path d="M37.0431 5.40686C37.2485 14.3612 38.5317 30.9766 45.1456 23.9529C49.7578 19.0643 53.4096 11.5332 55.8585 5.40686" stroke="black" stroke-linecap="round" stroke-linejoin="round"/>
<path d="M98.1607 18.4205C87.4037 26.2486 68.7055 40.8033 81.2371 38.7488C87.9097 37.6535 93.6511 34.188 98.1607 30.3699" stroke="black" stroke-linecap="round" stroke-linejoin="round"/>
</g>
<path d="M33.325 173.874C33.325 173.874 26.2125 172.488 24.57 166.028C22.9275 159.567 28.2143 162.333 23.4774 152.179C18.7332 142.024 19.8331 139.716 21.4683 136.789C23.1109 133.868 24.0201 134.79 25.4792 138.633C26.9384 142.482 32.2252 148.484 34.2342 159.716C36.2435 170.947 33.325 173.874 33.325 173.874Z" fill="#8571FF"/>
<path d="M47.3676 162.946C47.3676 162.946 42.6233 161.56 42.4473 154.023C42.264 146.479 45.9157 148.02 46.4582 138.633C47.0009 129.245 47.7342 122.63 49.7432 122.475C51.7525 122.321 57.0393 127.092 58.8577 137.556C60.6836 148.02 56.4894 154.945 52.8376 158.027C49.1933 161.102 47.3676 162.953 47.3676 162.953V162.946Z" fill="#8571FF"/>
<path d="M30.7737 182.952C30.7737 182.952 29.6813 177.414 27.4887 174.796C25.3037 172.179 20.5595 169.871 17.4578 164.796C14.3561 159.716 10.8951 157.253 11.0785 164.487C11.2618 171.721 15.0894 175.415 19.8336 177.878C24.5776 180.341 30.7737 182.959 30.7737 182.959V182.952Z" fill="#8571FF"/>
<path d="M28.7719 192.495C28.7719 192.495 24.3943 185.416 18.015 180.181C11.6356 174.945 6.52477 172.334 8.3506 174.945C10.1764 177.563 12.3615 177.408 15.4632 182.025C18.5649 186.641 17.6483 190.026 22.0259 192.644C26.4035 195.261 28.7719 192.489 28.7719 192.489V192.495Z" fill="#8571FF"/>
<path d="M28.2218 201.573C28.0384 201.109 27.8552 197.724 21.6591 194.958C15.4558 192.186 9.62636 193.262 10.3523 194.649C11.0782 196.035 14.9132 198.343 18.7408 199.729C22.5684 201.115 28.2218 201.573 28.2218 201.573Z" fill="#8571FF"/>
<path d="M47.0081 183.262C47.0081 183.262 44.2733 180.335 45.7324 174.184C47.1915 168.027 50.4765 169.568 54.1208 166.337C57.7652 163.107 57.0393 162.643 60.6834 159.258C64.3277 155.873 67.6127 154.023 69.0721 155.409C70.5312 156.795 68.346 161.102 66.1536 163.565C63.9684 166.028 60.5003 167.259 58.8578 170.335C57.2153 173.41 57.9485 178.336 53.7543 180.644C49.5599 182.953 47.0081 183.262 47.0081 183.262Z" fill="#8571FF"/>
<path d="M56.1219 184.958C56.1219 184.958 62.6847 178.646 67.4289 174.029C72.173 169.413 73.9914 165.873 74.1748 168.949C74.3582 172.024 75.8173 174.487 71.9896 178.491C68.1621 182.495 56.1219 184.952 56.1219 184.952V184.958Z" fill="#8571FF"/>
<path d="M52.6543 195.113C52.6543 195.113 52.4711 192.65 62.8686 186.957C73.2663 181.263 77.6365 180.187 76.5439 182.495C75.4515 184.803 70.8905 187.111 65.9704 191.27C61.0501 195.422 52.6617 195.119 52.6617 195.119L52.6543 195.113Z" fill="#8571FF"/>
<path d="M47.1038 163.33C47.1917 163.293 47.2723 163.237 47.3018 163.157C47.3164 163.12 47.7196 162.024 48.321 160.316C48.4529 160.019 48.5775 159.722 48.717 159.431C48.7316 159.4 48.717 159.37 48.6803 159.357C48.6729 159.357 48.6655 159.357 48.6583 159.357C50.0882 155.217 52.2731 148.565 53.2118 143.917C54.5317 137.358 53.3365 132.333 52.5445 129.004C52.4565 128.633 52.376 128.286 52.3026 127.958C52.2659 127.791 52.0751 127.68 51.8699 127.71C51.6719 127.741 51.5399 127.902 51.5765 128.076C51.6499 128.404 51.7307 128.756 51.8258 129.128C52.6104 132.414 53.791 137.376 52.4932 143.818C51.0561 150.947 46.6565 162.86 46.6124 162.977C46.5611 163.12 46.6418 163.268 46.7885 163.336C45.6446 166.108 44.7206 168.943 43.9067 171.795C42.7482 176.034 41.9049 180.329 41.3183 184.654L40.9516 187.903C40.8931 188.448 40.8269 188.986 40.7756 189.531L40.673 191.158C40.6143 192.247 40.541 193.33 40.5045 194.419L40.541 197.687L40.5851 199.32C40.6143 199.865 40.6584 200.41 40.7023 200.948C40.7977 202.031 40.8785 203.12 40.9957 204.203C41.245 206.369 41.6264 208.522 42.0224 210.663C42.0224 210.688 42.0588 210.713 42.0883 210.713C42.125 210.713 42.1542 210.688 42.1542 210.657C42.1542 209.568 42.0955 208.485 42.0662 207.402C42.0296 206.319 41.9195 205.243 41.9342 204.16C41.9342 203.077 41.9049 202 41.8903 200.917L41.8536 199.296L41.8903 197.674L41.9049 194.438L42.0075 191.202L42.0442 189.58C42.0662 189.042 42.1175 188.504 42.1542 187.965L42.3889 184.735C42.8362 180.434 43.54 176.146 44.5592 171.913C45.2558 169.029 46.0625 166.152 47.1038 163.336V163.33Z" fill="#858585"/>
<path d="M60.2797 182.29C57.5008 183.776 55.015 185.651 52.8446 187.761C51.7813 188.831 50.7841 189.951 49.9408 191.17L49.347 192.123L48.8776 193.114C48.7089 193.442 48.5917 193.776 48.467 194.116C48.3496 194.45 48.2103 194.791 48.1077 195.131C47.2718 197.848 46.7219 200.62 46.5678 203.405C46.4359 206.189 46.4944 208.974 46.9345 211.74C46.9345 211.765 46.9638 211.79 47.0005 211.79C47.0371 211.79 47.0738 211.771 47.0738 211.734L47.9243 203.485C48.2616 200.756 48.467 198.015 49.1636 195.347C49.2516 195.013 49.3616 194.692 49.4642 194.364C49.5668 194.036 49.6622 193.708 49.8089 193.392L50.2047 192.439L50.7181 191.536C51.4732 190.341 52.3899 189.203 53.3799 188.126C55.3669 185.966 57.6988 183.992 60.3605 182.396C60.3605 182.396 60.3972 182.34 60.3751 182.315C60.3531 182.29 60.3164 182.278 60.2797 182.297V182.29Z" fill="#858585"/>
<path d="M54.9936 192.909C53.4758 193.732 52.4637 195.032 51.6132 196.338C50.7994 197.674 50.1613 199.085 49.7214 200.539C49.5894 200.898 49.4868 201.263 49.3914 201.629L49.0836 202.724C48.9294 203.46 48.8048 204.203 48.7535 204.952C48.7389 205.7 48.7168 206.449 48.7755 207.192C48.8489 207.941 48.9515 208.683 49.1202 209.42C49.1202 209.438 49.1495 209.463 49.1715 209.463C49.2082 209.469 49.2449 209.45 49.2521 209.42C49.4647 208.683 49.6042 207.953 49.7214 207.229C49.8607 206.505 49.9928 205.781 50.0954 205.057C50.22 204.339 50.3375 203.621 50.4034 202.897C50.5206 202.179 50.5868 201.449 50.7699 200.744C51.0705 199.314 51.5545 197.916 52.2219 196.579C52.8818 195.255 53.7397 193.937 55.0596 193.002H55.067C55.067 193.002 55.0962 192.946 55.0816 192.922C55.0596 192.897 55.0229 192.891 54.9862 192.903L54.9936 192.909Z" fill="#858585"/>
<path d="M39.4038 201.171C39.0373 197.507 38.3261 193.881 37.6441 190.255C36.9621 186.629 36.2142 183.015 35.4296 179.407C34.9749 177.408 34.513 175.409 34.029 173.411C34.1024 173.343 34.139 173.25 34.117 173.151C34.0952 173.039 31.646 162.006 29.1164 154.24C26.5939 146.479 24.9368 141.665 24.9221 141.615C24.8634 141.448 24.6654 141.356 24.4674 141.405C24.2694 141.455 24.1594 141.622 24.2181 141.789C24.2327 141.838 25.8899 146.647 28.4123 154.407C30.9348 162.154 33.3765 173.163 33.3986 173.268C33.4278 173.392 33.5304 173.479 33.6699 173.51C34.0511 175.508 34.4104 177.507 34.7623 179.506C35.415 183.126 36.0236 186.752 36.5735 190.385C37.1014 194.017 37.5194 197.662 38.0547 201.288L39.6459 212.192C39.6459 212.192 39.6752 212.241 39.7118 212.241C39.7485 212.241 39.7778 212.217 39.7852 212.186C39.8365 211.27 39.8365 210.348 39.8657 209.426C39.8732 208.504 39.8219 207.588 39.7998 206.666C39.7631 204.828 39.5726 202.996 39.4112 201.165L39.4038 201.171Z" fill="#858585"/>
<path d="M36.8012 201.121C36.5665 199.673 36.2511 198.225 35.9287 196.789L35.32 194.648C35.122 193.936 34.9312 193.219 34.6819 192.519C33.8168 189.679 32.7096 186.894 31.3677 184.19L30.847 183.181L30.5685 182.705C30.5685 182.655 30.5539 182.612 30.5244 182.569C30.5244 182.563 30.4292 182.426 30.2751 182.204C29.9086 181.529 29.4613 180.898 29.0432 180.261C28.1853 179.085 27.2907 177.909 26.1101 176.931C25.3917 176.121 24.6143 175.279 23.7784 174.444C22.7446 173.41 21.7913 172.525 20.8674 171.659C18.279 169.239 16.2332 167.333 14.8987 164.524C14.8254 164.363 14.6054 164.289 14.4221 164.351C14.2314 164.413 14.1434 164.592 14.2168 164.753C15.5953 167.668 17.6777 169.611 20.3175 172.074C21.2341 172.934 22.1873 173.819 23.2139 174.84C27.1588 178.769 29.8645 182.829 29.8939 182.872C29.9378 182.94 30.0186 182.983 30.0991 183.002L30.2971 183.379L30.7516 184.394C31.9543 187.105 32.9148 189.896 33.6409 192.724C34.0366 194.135 34.3008 195.57 34.6234 196.987L35.0266 199.135C35.1733 199.846 35.3567 200.558 35.4739 201.276C35.7453 202.705 36.0533 204.135 36.3539 205.57C36.6178 207.006 36.9259 208.442 37.2852 209.877C37.2852 209.902 37.3216 209.927 37.3511 209.927C37.3878 209.927 37.417 209.902 37.417 209.871C37.4245 208.411 37.3878 206.944 37.2924 205.484C37.1898 204.023 36.9844 202.569 36.8084 201.115L36.8012 201.121Z" fill="#858585"/>
<path d="M33.208 201.307C32.4014 199.382 31.4703 197.501 30.4583 195.657C29.4172 193.825 28.2951 192.025 27.0048 190.311C26.9827 190.286 26.946 190.28 26.9168 190.292C26.8873 190.311 26.8727 190.342 26.8947 190.372C28.024 192.155 28.9771 194.011 29.8425 195.886C30.7224 197.761 31.5142 199.661 32.1816 201.592C32.8635 203.522 33.3475 205.49 33.9559 207.427C34.594 209.364 35.1147 211.319 35.8185 213.281C35.8259 213.306 35.8551 213.324 35.8844 213.324C35.9211 213.324 35.9505 213.3 35.9505 213.269C35.9872 211.22 35.7451 209.178 35.2758 207.173C34.8505 205.156 34.0074 203.232 33.208 201.307Z" fill="#858585"/>
<path d="M33.0615 207.705C32.6509 206.505 31.9471 205.379 31.1477 204.327C30.3631 203.262 29.4539 202.26 28.3687 201.412C28.2515 201.325 28.134 201.245 28.0168 201.164C28.0168 201.164 28.0022 201.152 27.9947 201.146H27.9801C27.54 200.83 27.0927 200.533 26.6015 200.286C26.2055 200.075 25.7949 199.896 25.3622 199.741C23.1698 198.59 20.0022 196.987 17.4431 195.911C17.2598 195.836 17.0398 195.898 16.9518 196.047C16.8638 196.201 16.9372 196.387 17.1132 196.461C21.4174 198.281 27.5254 201.628 27.5915 201.659C27.65 201.69 27.7088 201.703 27.7675 201.703C27.8042 201.74 27.848 201.771 27.8775 201.802C28.816 202.687 29.5713 203.708 30.1946 204.766C30.8545 205.818 31.1918 206.981 31.7637 208.064C32.013 208.621 32.2697 209.178 32.5629 209.735C32.8122 210.304 33.0836 210.867 33.4355 211.424C33.4355 211.424 33.4721 211.455 33.4942 211.462C33.5309 211.462 33.5675 211.437 33.5675 211.406C33.5968 210.781 33.5529 210.156 33.4868 209.531C33.377 208.918 33.2228 208.306 33.0543 207.699L33.0615 207.705Z" fill="#858585"/>
<path d="M65.2442 158.064C65.0682 157.977 64.8482 158.021 64.7384 158.169C63.081 160.502 59.8768 163.621 56.7898 166.635C54.8318 168.541 52.9841 170.341 51.635 171.839C48.152 175.7 46.7001 182.903 46.6414 183.213C46.6268 183.299 46.6488 183.38 46.7075 183.442C46.6047 183.807 46.4947 184.172 46.3995 184.537C45.6883 187.322 45.131 190.144 44.7863 192.984C44.449 195.818 44.0676 198.652 44.0237 201.499C43.9724 204.346 44.0237 207.192 44.3831 210.039C44.3831 210.064 44.4123 210.088 44.4416 210.088C44.4782 210.088 44.5149 210.07 44.5149 210.039C44.9037 207.205 45.1456 204.377 45.3728 201.548C45.6075 198.72 45.6442 195.886 45.8642 193.058C46.0694 190.243 46.4875 187.433 47.0594 184.642C47.1474 184.221 47.2428 183.801 47.3308 183.38C47.3454 183.355 47.3526 183.336 47.36 183.306C47.3747 183.231 48.8412 175.948 52.2142 172.21C53.5487 170.725 55.3892 168.937 57.3397 167.037C60.4559 164.005 63.675 160.867 65.3688 158.485C65.4716 158.336 65.4201 158.151 65.2442 158.058V158.064Z" fill="#858585"/>
<path d="M62.9273 232.427C62.5167 223.09 50.22 216.864 50.22 216.864H31.3751C31.3751 216.864 19.0785 223.09 18.6678 232.427C18.2572 241.765 32.5998 276.004 32.5998 276.004H48.9807C48.9807 276.004 63.3233 241.765 62.9127 232.427H62.9273Z" fill="#858585"/>
<path d="M52.6471 207.681H28.6033L31.3825 216.864H49.8753L52.6471 207.681Z" fill="#858585"/>
<path d="M181.444 246.433C181.444 246.433 155.596 252.626 151.93 253.163C148.264 253.704 146.827 252.891 143.153 254.105C139.487 255.317 132.147 256.661 132.147 256.661C132.147 256.661 115.238 259.216 106.461 258.95C97.6835 258.685 94.4939 257.739 94.4939 257.739L91.6196 257.062C91.6196 257.062 90.1823 259.488 90.0209 261.506C89.8596 263.523 90.8204 273.622 90.8204 273.622C90.8204 273.622 94.6478 272.682 104.063 274.298C113.478 275.911 127.835 278.065 138.526 276.587C149.217 275.108 150.016 273.896 153.844 273.492C157.671 273.09 170.753 276.322 173.788 276.184C176.817 276.047 248.456 276.184 248.456 276.184C248.456 276.184 255.796 273.628 262.022 269.725C268.247 265.819 279.414 263.264 282.919 256.259C286.432 249.26 277.655 241.853 273.029 241.313C268.4 240.775 245.428 247.774 244.467 247.91C243.506 248.046 240.611 245.776 240.611 245.776L181.444 246.433Z" fill="#263238" stroke="#263238" stroke-linecap="round" stroke-linejoin="round"/>
<path d="M196.571 251.19L200.97 255.473" stroke="#949494" stroke-linecap="round" stroke-linejoin="round"/>
<path d="M193.022 251.19C193.022 251.19 200.971 257.471 202.664 260.467" stroke="#949494" stroke-linecap="round" stroke-linejoin="round"/>
<path d="M229.729 251.333C229.729 251.333 224.318 254.904 221.949 258.041" stroke="#949494" stroke-linecap="round" stroke-linejoin="round"/>
<path d="M224.823 251.901C224.823 251.901 220.592 256.61 219.243 259.179" stroke="#949494" stroke-linecap="round" stroke-linejoin="round"/>
<path d="M176.531 192.73C176.531 192.73 169.859 197.025 164.946 200.286C160.033 203.547 154.761 207.099 149.144 209.179C143.527 211.252 127.197 211.4 115.612 215.107C104.027 218.814 90.1533 221.035 90.1533 221.035L91.5611 229.779C91.5611 229.779 139.311 227.854 149.144 225.781C158.977 223.709 159.153 222.223 163.89 224.155C168.627 226.084 183.908 244.303 183.908 244.303L179.692 245.045L180.043 247.267C180.043 247.267 188.469 250.676 201.99 249.934C215.511 249.192 225.689 248.604 228.674 248.454C231.658 248.307 240.611 245.787 240.611 245.787C240.611 245.787 238.682 236.896 234.466 222.824C230.249 208.745 230.425 200.305 230.425 200.305L253.598 208.009C253.598 208.009 254.3 215.268 252.718 225.639C251.141 236.011 249.381 240.305 249.381 240.305L261.317 243.565C261.317 243.565 267.638 217.786 269.744 210.379C271.847 202.972 268.335 199.562 265.878 197.786C263.423 196.01 233.404 180.602 226.202 178.819C219.002 177.043 209.872 176.895 205.839 177.928C201.799 178.968 191.622 182.371 191.622 182.371L176.524 192.743L176.531 192.73Z" fill="#8571FF" stroke="#263238" stroke-linecap="round" stroke-linejoin="round"/>
<path d="M191.335 246.209C193.352 246.593 195.925 246.872 199.144 246.872C209.388 246.872 210.877 246.4 210.877 246.4" stroke="#263238" stroke-linecap="round" stroke-linejoin="round"/>
<path d="M185.183 244.044C185.183 244.044 186.166 244.793 188.52 245.515" stroke="#263238" stroke-linecap="round" stroke-linejoin="round"/>
<path d="M218.561 247.019C219.72 246.746 220.827 246.437 221.861 246.086" stroke="#263238" stroke-linecap="round" stroke-linejoin="round"/>
<path d="M192.817 248.757C192.817 248.757 205.099 249.383 215.379 247.651" stroke="#263238" stroke-linecap="round" stroke-linejoin="round"/>
<path d="M157.693 220.888C155.186 218.907 150.764 215.658 147.215 214.365" stroke="#263238" stroke-linecap="round" stroke-linejoin="round"/>
<path d="M159.673 222.515C159.673 222.515 159.365 222.249 158.837 221.814" stroke="#263238" stroke-linecap="round" stroke-linejoin="round"/>
<path d="M154.408 214.513C154.408 214.513 159.321 217.477 160.553 218.808" stroke="#263238" stroke-linecap="round" stroke-linejoin="round"/>
<path d="M228.321 199.699C228.321 199.699 223.408 198.956 221.12 195.843" stroke="#263238" stroke-linecap="round" stroke-linejoin="round"/>
<path d="M189.583 208.09C195.566 209.662 201.777 211.023 206.022 211.258" stroke="#263238" stroke-linecap="round" stroke-linejoin="round"/>
<path d="M171.442 202.663C171.442 202.663 178.488 205.045 186.664 207.304" stroke="#263238" stroke-linecap="round" stroke-linejoin="round"/>
<path d="M205.825 222.793C207.644 223.443 209.315 223.957 210.767 224.291" stroke="#263238" stroke-linecap="round" stroke-linejoin="round"/>
<path d="M173.195 207.254C173.195 207.254 190.522 216.84 203.193 221.81" stroke="#263238" stroke-linecap="round" stroke-linejoin="round"/>
<path d="M172.41 213.312C173.737 214.123 174.742 214.723 174.947 214.81" stroke="#263238" stroke-linecap="round" stroke-linejoin="round"/>
<path d="M164.066 208.145C164.066 208.145 167.255 210.144 170.188 211.951" stroke="#263238" stroke-linecap="round" stroke-linejoin="round"/>
<path d="M201.916 191.066C201.821 191.679 201.675 192.291 201.462 192.879" stroke="#263238" stroke-linecap="round" stroke-linejoin="round"/>
<path d="M200.934 183.25C200.934 183.25 202.07 186.128 202.048 189.358" stroke="#263238" stroke-linecap="round" stroke-linejoin="round"/>
<path d="M156.175 165.019C156.175 165.019 156.593 172.21 156.879 173.782C157.165 175.347 154.863 180.867 159.035 186.362C161.396 189.481 160.89 194.203 163.61 194.803C166.324 195.403 173.18 192.996 173.18 192.996C173.18 192.996 175.181 196.134 176.179 198.182C177.176 200.23 183.035 205.54 189.326 202.161C195.61 198.782 197.898 187.934 197.186 185.762C196.475 183.59 195.185 182.266 194.473 181.783C193.762 181.301 192.046 179.852 191.614 178.887C191.188 177.922 190.616 175.632 190.902 173.584C191.188 171.536 192.186 163.454 190.044 160.564C187.903 157.668 183.614 155.26 175.614 155.26C167.614 155.26 160.758 157.791 160.758 157.791C160.758 157.791 162.327 155.502 161.044 155.984C159.761 156.467 158.617 157.791 158.617 157.791C158.617 157.791 158.331 154.413 156.901 156.343C155.471 158.274 155.618 160.564 155.618 160.564C155.618 160.564 154.621 159.598 154.474 161.046C154.335 162.494 156.19 165.025 156.19 165.025L156.175 165.019Z" fill="white" stroke="#263238" stroke-linecap="round" stroke-linejoin="round"/>
<path d="M190.895 173.578C191.181 171.53 192.179 163.448 190.037 160.558C187.896 157.662 183.607 155.255 175.607 155.255C167.607 155.255 160.751 157.785 160.751 157.785C160.751 157.785 162.32 155.496 161.037 155.979C159.754 156.461 158.61 157.785 158.61 157.785C158.61 157.785 158.324 154.407 156.894 156.337C155.464 158.268 155.611 160.558 155.611 160.558C155.611 160.558 154.614 159.592 154.467 161.041C154.328 162.489 156.183 165.02 156.183 165.02C156.183 165.02 158.185 165.985 159.329 165.62C160.472 165.261 162.261 164.289 163.332 164.054C167.13 163.219 173.759 162.971 172.336 164.655C170.914 166.338 168.619 167.186 170.335 168.151C172.05 169.116 177.191 169.958 177.477 171.288C177.763 172.613 177.616 175.267 179.192 174.543C180.762 173.819 181.48 171.406 183.907 172.012C186.334 172.613 188.336 175.267 187.478 177.316C186.62 179.364 187.764 179.847 189.905 178.399C190.353 178.095 190.756 177.718 191.13 177.303C190.888 176.22 190.734 174.853 190.91 173.578H190.895Z" fill="#263238" stroke="#263238" stroke-linecap="round" stroke-linejoin="round"/>
<path d="M181.048 174.067C181.048 174.067 183.607 170.929 185.462 170.929C187.317 170.929 189.605 172.978 187.464 177.322C185.323 181.66 182.463 182.142 181.752 179.253" fill="white"/>
<path d="M181.048 174.067C181.048 174.067 183.607 170.929 185.462 170.929C187.317 170.929 189.605 172.978 187.464 177.322C185.323 181.66 182.463 182.142 181.752 179.253" stroke="#263238" stroke-linecap="round" stroke-linejoin="round"/>
<path d="M159.571 173.305L160.517 175.31C160.517 175.31 159.571 181.715 160.202 182.786C160.832 183.856 164.946 183.188 164.946 183.188" stroke="#263238" stroke-linecap="round" stroke-linejoin="round"/>
<path d="M161.631 186.387C161.631 186.387 166.376 187.724 170.489 183.72" stroke="#263238" stroke-linecap="round" stroke-linejoin="round"/>
<path d="M163.684 171.709C163.684 171.709 168.274 170.106 170.804 171.443" stroke="#263238" stroke-width="2" stroke-linecap="round" stroke-linejoin="round"/>
<path d="M159.101 172.371L157.518 171.709" stroke="#263238" stroke-width="2" stroke-linecap="round" stroke-linejoin="round"/>
<path d="M168.113 174.84C168.113 175.54 167.688 176.109 167.167 176.109C166.646 176.109 166.221 175.54 166.221 174.84C166.221 174.141 166.646 173.572 167.167 173.572C167.688 173.572 168.113 174.141 168.113 174.84Z" fill="#263238"/>
<path d="M159.849 175.298C159.849 175.954 159.468 176.486 158.999 176.486C158.53 176.486 158.148 175.954 158.148 175.298C158.148 174.642 158.53 174.11 158.999 174.11C159.468 174.11 159.849 174.642 159.849 175.298Z" fill="#263238"/>
<path d="M173.18 192.991C173.18 192.991 179.207 191.908 180.212 190.918C181.216 189.927 180.718 192.192 180.043 195.59C179.369 198.987 178.027 199.983 178.027 199.983C178.027 199.983 176.854 199.135 175.842 197.007C174.837 194.884 173.173 192.991 173.173 192.991H173.18Z" fill="#263238" stroke="#263238" stroke-linecap="round" stroke-linejoin="round"/>
<path d="M65.0903 232.347C65.0903 232.347 60.8227 237.86 60.9545 244.501C61.0866 251.142 64.9508 269.477 66.6887 273.189C68.4191 276.901 71.6236 280.276 76.419 278.14C81.2147 276.006 84.6828 275.775 87.0806 275.665C89.4785 275.553 92.5434 275.101 92.8148 270.603C93.0787 266.105 91.4803 261.488 91.4803 261.488C91.4803 261.488 94.01 257.324 93.35 255.299C92.6827 253.275 86.0175 252.037 84.8149 250.801C83.6123 249.563 80.4152 240.788 79.3521 238.424C78.2888 236.06 78.1495 234.148 78.4208 232.347C78.6848 230.547 80.1513 226.159 75.6198 226.945C71.0883 227.731 68.5512 230.095 65.0903 232.347Z" fill="#8571FF" stroke="#263238" stroke-linecap="round" stroke-linejoin="round"/>
<path d="M81.7499 250.257C81.7499 250.257 83.0698 249.761 84.0962 249.761" stroke="#263238" stroke-width="2" stroke-linecap="round" stroke-linejoin="round"/>
<path d="M80.577 247.658C80.577 247.658 81.8969 246.913 82.6301 246.913" stroke="#263238" stroke-width="2" stroke-linecap="round" stroke-linejoin="round"/>
<path d="M80.1365 244.562L81.3096 244.191" stroke="#263238" stroke-width="2" stroke-linecap="round" stroke-linejoin="round"/>
<path d="M79.616 265.534C76.9471 259.798 73.8819 248.771 73.8819 239.656C73.8819 230.541 75.825 228.714 76.815 226.864C76.4703 226.846 76.0817 226.864 75.6198 226.938C71.0883 227.724 68.5512 230.088 65.0903 232.341C65.0903 232.341 60.8227 237.853 60.9545 244.494C61.0866 251.135 64.9508 269.47 66.6887 273.182C68.4191 276.895 71.6236 280.269 76.419 278.133C78.3108 277.292 79.9974 276.748 81.4858 276.388C81.5812 273.931 81.4345 269.446 79.616 265.534Z" fill="white" stroke="#263238" stroke-linecap="round" stroke-linejoin="round"/>
<path d="M74.9525 267.446C72.6867 261.482 71.4843 252.707 71.0883 242.806C70.7729 235.076 73.9553 229.197 75.3705 226.993C71.0003 227.823 68.4925 230.137 65.0903 232.341C65.0903 232.341 60.8227 237.853 60.9545 244.494C61.0866 251.135 64.9508 269.47 66.6887 273.183C68.4191 276.895 71.6236 280.269 76.419 278.133C76.4411 278.122 76.4631 278.115 76.4849 278.102C76.7783 276.135 76.6904 272.026 74.9525 267.44V267.446Z" fill="white" stroke="#263238" stroke-linecap="round" stroke-linejoin="round"/>
<path d="M249.388 240.292C249.388 240.292 238.99 240.565 238.302 240.955C237.611 241.344 229.282 244.861 228.123 245.447C226.964 246.035 224.882 248.764 225.461 249.352C226.042 249.941 227.308 249.743 228.123 249.55C228.931 249.352 231.012 249.063 231.012 249.063C231.012 249.063 229.392 250.231 230.089 250.329C230.785 250.43 233.91 249.649 234.715 249.254C235.521 248.863 243.625 247.205 244.548 247.205C245.473 247.205 251.955 247.985 255.886 246.815C259.814 245.647 261.333 243.555 261.333 243.555L249.394 240.292H249.388Z" fill="white" stroke="#263238" stroke-linecap="round" stroke-linejoin="round"/>
<path d="M231.012 249.056C231.012 249.056 240.28 245.144 241.013 244.892C241.753 244.643 243.668 244.143 243.668 244.143" stroke="#263238" stroke-linecap="round" stroke-linejoin="round"/>
<path d="M225.461 249.352C225.461 249.352 232.31 246.018 233.051 245.77C233.791 245.522 240.426 242.782 240.426 242.782" stroke="#263238" stroke-linecap="round" stroke-linejoin="round"/>
<path d="M226.555 246.964C226.555 246.964 230.184 245.157 230.675 244.971C231.167 244.786 238.374 241.864 238.374 241.864" stroke="#263238" stroke-linecap="round" stroke-linejoin="round"/>
<path d="M207.071 263.407C207.071 263.407 201.748 260.77 198.162 260.09C194.577 259.409 190.756 261.067 188.102 261.067C185.448 261.067 178.966 258.722 173.994 258.628C169.023 258.529 163.237 263.611 163.934 267.415C164.631 271.222 166.478 274.148 171.684 275.325C176.891 276.493 198.632 276.203 198.632 276.203L208.582 275.714C208.582 275.714 207.541 270.443 207.541 268.293C207.541 266.146 207.079 263.411 207.079 263.411L207.071 263.407Z" fill="#8571FF" stroke="#263238" stroke-linecap="round" stroke-linejoin="round"/>
<path d="M190.345 265.591C190.345 265.591 187.559 268.065 189.025 272.515" stroke="#263238" stroke-width="2" stroke-linecap="round" stroke-linejoin="round"/>
<path d="M193.719 265.962C193.719 265.962 190.932 268.436 192.399 272.886" stroke="#263238" stroke-width="2" stroke-linecap="round" stroke-linejoin="round"/>
<path d="M197.084 266.333C197.084 266.333 194.297 268.807 195.764 273.257" stroke="#263238" stroke-width="2" stroke-linecap="round" stroke-linejoin="round"/>
<path d="M200.457 266.704C200.457 266.704 197.671 269.18 199.137 273.628" stroke="#263238" stroke-width="2" stroke-linecap="round" stroke-linejoin="round"/>
<path d="M171.677 275.319C171.758 275.336 171.853 275.356 171.941 275.367C170.585 274.686 168.869 273.655 168.209 272.484C167.051 270.436 166.706 269.749 167.402 268.579C168.099 267.409 168.678 266.724 168.678 264.965C168.678 263.207 168.796 261.94 168.796 261.94C168.796 261.94 171.685 259.501 173.884 259.403C175.615 259.328 181.928 260.219 185.727 260.74C182.544 260.096 177.829 258.698 174.002 258.617C169.03 258.518 163.245 263.598 163.941 267.404C164.638 271.209 166.486 274.135 171.692 275.312L171.677 275.319Z" fill="white" stroke="#263238" stroke-linecap="round" stroke-linejoin="round"/>
<path d="M268.488 244.079C268.488 244.079 252.76 247.787 244.087 251.21C235.411 254.626 220.255 262.144 220.255 262.144L207.071 263.411C207.071 263.411 207.071 271.903 207.188 272.978C207.305 274.056 208.574 275.714 208.574 275.714C208.574 275.714 231.937 273.957 241.886 272.59C251.836 271.222 271.386 264.779 276.122 262.144" fill="#263238"/>
<path d="M268.488 244.079C268.488 244.079 252.76 247.787 244.087 251.21C235.411 254.626 220.255 262.144 220.255 262.144L207.071 263.411C207.071 263.411 207.071 271.903 207.188 272.978C207.305 274.056 208.574 275.714 208.574 275.714C208.574 275.714 231.937 273.957 241.886 272.59C251.836 271.222 271.386 264.779 276.122 262.144" stroke="#263238" stroke-linecap="round" stroke-linejoin="round"/>
<path d="M209.256 263.92C209.256 263.92 220.167 262.812 236.196 254.823C244.555 250.659 250.268 249.526 254.594 248.61" stroke="#949494" stroke-linecap="round" stroke-linejoin="round"/>
<path d="M198.162 260.09C194.577 259.409 190.756 261.067 188.102 261.067C190.529 261.356 194.577 261.457 197.238 260.775C197.854 260.614 198.514 260.467 199.167 260.325C198.822 260.237 198.485 260.158 198.169 260.094L198.162 260.09Z" stroke="#263238" stroke-linecap="round" stroke-linejoin="round"/>
<path d="M92.2871 222.447C92.2871 222.447 90.8206 221.096 88.5548 220.756C86.2891 220.416 78.0253 218.733 76.4267 219.067C74.8283 219.408 68.4268 224.692 67.4955 226.043C66.5645 227.39 64.4306 233.467 64.6945 234.253C64.9586 235.039 64.2913 235.379 66.8284 234.031C69.3581 232.681 70.5607 230.881 72.5625 229.191C74.5643 227.502 75.6275 226.938 75.6275 226.938C75.6275 226.938 78.5606 226.376 79.0958 226.376C79.6311 226.376 81.9041 225.454 80.7017 227.819C79.499 230.181 76.2948 233.239 76.9619 234.705C77.6293 236.165 77.7611 235.379 79.763 234.031C81.7648 232.681 83.4953 232.007 83.4953 232.007C83.4953 232.007 87.0957 231.221 88.0268 230.769C88.958 230.317 92.1625 230.993 92.9617 226.945C93.7609 222.892 92.2943 222.447 92.2943 222.447H92.2871Z" fill="white" stroke="#263238" stroke-linecap="round" stroke-linejoin="round"/>
<path d="M66.8207 234.036C66.8207 234.036 66.2854 232.793 67.5245 231.228C68.7638 229.656 73.8747 224.427 74.6518 223.907C75.4292 223.38 76.8224 222.862 76.8224 222.862" stroke="#263238" stroke-linecap="round" stroke-linejoin="round"/>
<path d="M64.687 234.26C64.687 234.26 66.278 230.176 67.5173 228.343C68.7566 226.512 71.8582 223.9 72.0121 223.375C72.1662 222.848 74.0286 221.803 74.0286 221.803" stroke="#263238" stroke-linecap="round" stroke-linejoin="round"/>
</svg>
