<svg width="30" height="30" viewBox="0 0 30 30" fill="none" xmlns="http://www.w3.org/2000/svg">
<circle cx="15" cy="15" r="15" fill="white"/>
<path d="M6.9 22.15C6.9 21.5325 7.07812 20.9783 7.43438 20.4875C7.79062 19.9967 8.24583 19.6562 8.8 19.4663V14.55C8.8 13.505 9.17208 12.6104 9.91625 11.8663C10.6604 11.1221 11.555 10.75 12.6 10.75C13.645 10.75 14.5396 11.1221 15.2838 11.8663C16.0279 12.6104 16.4 13.505 16.4 14.55V16.45C16.4 16.9725 16.586 17.4198 16.9581 17.7919C17.3302 18.164 17.7775 18.35 18.3 18.35C18.8225 18.35 19.2698 18.164 19.6419 17.7919C20.014 17.4198 20.2 16.9725 20.2 16.45V11.5338C19.6458 11.3279 19.1906 10.9835 18.8344 10.5006C18.4781 10.0177 18.3 9.4675 18.3 8.85C18.3 8.05833 18.5771 7.38542 19.1312 6.83125C19.6854 6.27708 20.3583 6 21.15 6C21.9417 6 22.6146 6.27708 23.1687 6.83125C23.7229 7.38542 24 8.05833 24 8.85C24 9.4675 23.8219 10.0177 23.4656 10.5006C23.1094 10.9835 22.6542 11.3279 22.1 11.5338V16.45C22.1 17.495 21.7279 18.3896 20.9838 19.1337C20.2396 19.8779 19.345 20.25 18.3 20.25C17.255 20.25 16.3604 19.8779 15.6163 19.1337C14.8721 18.3896 14.5 17.495 14.5 16.45V14.55C14.5 14.0275 14.314 13.5802 13.9419 13.2081C13.5698 12.836 13.1225 12.65 12.6 12.65C12.0775 12.65 11.6302 12.836 11.2581 13.2081C10.886 13.5802 10.7 14.0275 10.7 14.55V19.4663C11.2542 19.6721 11.7094 20.0165 12.0656 20.4994C12.4219 20.9823 12.6 21.5325 12.6 22.15C12.6 22.9417 12.3229 23.6146 11.7688 24.1687C11.2146 24.7229 10.5417 25 9.75 25C8.95833 25 8.28542 24.7229 7.73125 24.1687C7.17708 23.6146 6.9 22.9417 6.9 22.15ZM20.2 8.85C20.2 9.11917 20.291 9.34479 20.4731 9.52688C20.6552 9.70896 20.8808 9.8 21.15 9.8C21.4192 9.8 21.6448 9.70896 21.8269 9.52688C22.009 9.34479 22.1 9.11917 22.1 8.85C22.1 8.58083 22.009 8.35521 21.8269 8.17313C21.6448 7.99104 21.4192 7.9 21.15 7.9C20.8808 7.9 20.6552 7.99104 20.4731 8.17313C20.291 8.35521 20.2 8.58083 20.2 8.85Z" fill="black" fill-opacity="0.9"/>
</svg>
