<svg width="29" height="26" viewBox="0 0 29 26" fill="none" xmlns="http://www.w3.org/2000/svg">
<g clip-path="url(#clip0_95175_1348)">
<path d="M21.3155 8.55902C21.214 8.33088 20.895 8.11936 20.6626 7.9349C20.6517 7.92624 20.6408 7.91766 20.6297 7.90878C20.3916 7.71988 20.1507 7.53339 19.9089 7.34742C19.8509 7.30277 19.7928 7.25804 19.7348 7.21331C19.6059 7.11403 19.4768 7.01469 19.3477 6.91534C19.3152 6.89032 19.2828 6.86545 19.2503 6.84043C19.1995 6.80137 19.1489 6.76239 19.0981 6.72334C19.0786 6.70828 19.059 6.69323 19.0395 6.67817C18.9466 6.60675 18.8536 6.53519 18.7606 6.4637C18.5947 6.33636 18.4292 6.20879 18.2649 6.08017C18.2391 6.06002 18.2133 6.03987 18.1875 6.01972C18.1419 5.98414 18.0964 5.94835 18.0512 5.91248C17.8623 5.76421 17.6838 5.64524 17.4555 5.60484C17.3085 5.58662 17.1863 5.60742 17.1087 5.67586C17.0738 5.71823 17.0544 5.76233 17.0529 5.82136C17.0524 5.83793 17.0523 5.83793 17.0519 5.85494C17.0502 5.94429 17.0502 5.94429 17.0497 5.98689C17.042 6.53063 16.9026 7.013 16.6748 7.4579C16.6721 7.46318 16.6694 7.46847 16.6667 7.47397C16.6009 7.60193 16.5278 7.72555 16.4503 7.84671C16.4467 7.85252 16.443 7.85834 16.4391 7.86438C16.3852 7.94915 16.3287 8.03217 16.2701 8.11397C16.1573 8.27189 16.1573 8.27189 16.1133 8.34374C16.1096 8.34956 16.1057 8.35537 16.1017 8.36141C16.0792 8.40008 16.0818 8.43029 16.1055 8.48389C16.1453 8.55481 16.2093 8.60353 16.2914 8.65387C16.3687 8.69665 16.4522 8.72271 16.5272 8.72477C16.6407 8.71281 16.7155 8.6555 16.785 8.60033C16.7949 8.59274 16.8048 8.58514 16.8145 8.57755C16.841 8.55709 16.8672 8.53657 16.8935 8.51597C16.9211 8.49425 16.9488 8.47274 16.9766 8.45123C17.0415 8.40078 17.1062 8.35011 17.1709 8.29937C17.1955 8.28012 17.2201 8.26072 17.2447 8.24148C17.2695 8.22208 17.2942 8.20268 17.3189 8.18329C17.3372 8.169 17.3553 8.15472 17.3736 8.14044C17.426 8.09931 17.4786 8.05811 17.5308 8.01685C17.5523 7.99986 17.5737 7.98294 17.5953 7.9661C17.6053 7.95814 17.6153 7.95032 17.6252 7.94235C17.6388 7.9316 17.6525 7.92093 17.6661 7.9101C17.6776 7.90116 17.6776 7.90116 17.6893 7.89191C17.7044 7.87789 17.7044 7.87789 17.7244 7.87889C17.9033 8.82352 17.8074 9.6732 15.7033 12.3342C15.6976 12.3377 15.692 12.3412 15.6862 12.3448C15.3198 12.5714 14.9226 12.7684 14.4863 12.9287C14.4507 12.9417 14.4153 12.9551 14.3798 12.9684C14.2295 13.0245 14.0746 13.0741 13.9139 13.1189C13.9014 13.1224 13.8889 13.1259 13.8759 13.1294C13.6361 13.1963 13.3904 13.2552 13.1375 13.3063C13.1151 13.1846 13.096 13.0638 13.0782 12.9432C13.0265 12.5922 12.9631 12.2404 12.7614 11.8653C12.7421 11.8294 12.7246 11.7939 12.7076 11.7581C12.6798 11.7013 12.6456 11.6467 12.6082 11.5902C12.6001 11.5775 12.592 11.5648 12.5837 11.5517C12.2472 11.0241 11.73 10.5468 11.0753 10.2014C10.4026 9.85326 9.71042 9.66489 9.07576 9.64822C9.03733 9.64708 8.99865 9.64522 8.95993 9.64342C8.90338 9.64127 8.8509 9.64305 8.79834 9.64787C8.76444 9.65074 8.72984 9.65222 8.69503 9.65378C8.15451 9.68699 7.70266 9.87013 7.38595 10.1383C7.37948 10.1437 7.37319 10.1491 7.36651 10.1546C7.26395 10.2449 7.18745 10.349 7.12193 10.4634C7.11824 10.4698 7.11449 10.4763 7.11062 10.483C6.87993 10.8872 6.92842 11.4056 7.23147 11.9662C7.55401 12.5224 8.14598 13.0461 8.81446 13.4243C9.2991 13.6942 9.8096 13.8918 10.3141 14.0304C10.3272 14.034 10.3403 14.0376 10.3537 14.0413C10.7182 14.1405 11.0669 14.1927 11.4124 14.2248C11.5032 14.2334 11.5944 14.2441 11.6868 14.2567C11.6691 14.2992 11.6514 14.3418 11.6336 14.3842C11.6276 14.3986 11.6216 14.4131 11.6156 14.4274C11.5388 14.6125 11.45 14.7894 11.3505 14.9621C11.3476 14.9671 11.3448 14.9721 11.3418 14.9772C11.2709 15.0999 11.1996 15.2221 11.1115 15.3345C11.105 15.3428 11.0984 15.3513 11.0916 15.36C10.9476 15.5352 10.7658 15.6858 10.5888 15.8374C10.5711 15.8523 10.5537 15.8674 10.5362 15.8824C10.3476 16.0442 10.1571 16.2043 9.95644 16.3569C9.94837 16.363 9.94837 16.363 9.94008 16.3693C9.55052 16.6664 9.09329 16.9089 8.6007 17.1138C8.59436 17.1163 8.58801 17.1189 8.58158 17.1217C8.32598 17.2279 8.06345 17.327 7.78668 17.4109C7.75408 17.4208 7.72152 17.4309 7.68912 17.441C7.51703 17.494 7.34001 17.5405 7.16103 17.5855C7.10064 17.6007 7.04025 17.6159 6.97994 17.6312C6.9588 17.6366 6.9377 17.6419 6.9166 17.6472C6.68917 17.7049 6.68917 17.7049 6.65743 17.7599C6.65485 17.8208 6.67954 17.8703 6.72745 17.9369C6.78144 17.9918 6.83492 18.0277 6.90931 18.0524C7.00419 18.0811 7.07571 18.0709 7.15161 18.0595C7.16695 18.0573 7.16696 18.0573 7.18263 18.055C7.21534 18.0501 7.24804 18.0453 7.28067 18.0403C7.29129 18.0387 7.30191 18.037 7.31287 18.0354C7.44918 18.0146 7.58453 17.9925 7.71931 17.9697C7.75637 17.9634 7.79354 17.9574 7.83106 17.9518C8.04652 17.9185 8.25127 17.8712 8.45706 17.8255C8.46933 17.8227 8.48178 17.82 8.49443 17.8172C8.84429 17.7389 9.17808 17.6402 9.49886 17.5287C9.53309 17.5169 9.56739 17.5052 9.60257 17.4943C10.3741 17.2551 11.0346 16.8553 12.9341 14.4766C12.9826 14.3185 13.0557 14.2325 13.2669 14.2022C13.3231 14.1946 13.3797 14.1875 13.4365 14.1807C14.4323 14.0603 15.3461 13.8065 16.1433 13.4541C16.1633 13.4453 16.1834 13.4366 16.2035 13.4278C16.9506 13.1012 17.5687 12.6461 18.4121 11.693C18.4174 11.6859 18.4174 11.6859 18.4227 11.6787C18.5079 11.5644 18.5783 11.4411 18.6493 11.3184C18.6542 11.3099 18.6542 11.3099 18.6591 11.3014C18.769 11.1114 18.8701 10.9183 18.9462 10.71C18.9499 10.6999 18.9499 10.6999 18.9537 10.6895C19.1875 10.0506 19.2672 9.33963 19.1524 8.38551C19.1509 8.37429 19.1493 8.36307 19.1478 8.35156C19.1277 8.20703 19.0987 8.06137 19.0645 7.91347C19.0538 7.86628 19.0442 7.81931 19.0345 7.77233C19.0327 7.76414 19.0311 7.75595 19.0295 7.74755C19.0256 7.72904 19.0219 7.7106 19.0182 7.69216C19.1426 7.76997 19.2635 7.8505 19.384 7.93309C19.4022 7.94558 19.4205 7.95814 19.4389 7.97062C19.4866 8.00321 19.5343 8.03594 19.582 8.06853C20.0383 8.38106 20.0383 8.38106 20.1753 8.4721C20.188 8.48051 20.188 8.48051 20.201 8.48907C20.447 8.65147 20.7821 8.83142 21.0491 8.85786C21.2575 8.85976 21.3745 8.73743 21.3155 8.55902ZM11.6696 13.4712C11.6593 13.4704 11.6491 13.4697 11.6383 13.4689C11.6275 13.4682 11.6167 13.4676 11.6054 13.4669C11.5743 13.4649 11.5431 13.4626 11.5118 13.4604C11.498 13.4594 11.4842 13.4584 11.47 13.4573C11.4454 13.4553 11.4207 13.4533 11.396 13.4511C11.3612 13.4483 11.3267 13.446 11.2922 13.4438C10.591 13.4003 9.83052 13.2705 9.1095 12.8184C8.68823 12.5444 8.38848 12.2312 8.2148 11.8688C8.08849 11.5891 8.10534 11.3285 8.17629 11.1075C8.18028 11.0948 8.18028 11.0948 8.1844 11.0819C8.19337 11.0574 8.20385 11.034 8.21537 11.0109C8.21943 11.0027 8.21943 11.0027 8.22353 10.9944C8.37723 10.6903 8.66951 10.4418 9.12345 10.3928C9.14312 10.3903 9.14312 10.3903 9.16326 10.3878C9.52671 10.345 9.94468 10.4292 10.3701 10.606C10.3845 10.6118 10.3987 10.6176 10.4134 10.6236C10.7907 10.7869 11.1642 11.0563 11.3968 11.3484C11.4669 11.4428 11.525 11.5374 11.5812 11.633C11.5884 11.6447 11.5955 11.6564 11.6028 11.6685C11.9146 12.1979 11.8554 12.7191 11.8585 13.1851C11.8588 13.2259 11.8592 13.2666 11.8607 13.3078C11.8609 13.3143 11.861 13.3208 11.8613 13.3275C11.8618 13.3442 11.8625 13.3609 11.8633 13.3778C11.858 13.4617 11.7752 13.4772 11.6696 13.4712Z" fill="#1D1D1C"/>
</g>
<defs>
<clipPath id="clip0_95175_1348">
<rect width="16.5165" height="23.3922" fill="white" transform="matrix(0.5 -0.866025 -0.866025 -0.5 20.2583 25.9998)"/>
</clipPath>
</defs>
</svg>
