<svg width="30" height="27" viewBox="0 0 30 27" fill="none" xmlns="http://www.w3.org/2000/svg">
<g clip-path="url(#clip0_95185_1298)">
<path d="M10.3301 7.50728C10.3408 7.50851 10.3516 7.50973 10.3627 7.51099C10.4644 7.52271 10.5592 7.53501 10.6563 7.56529C10.6771 7.56933 10.698 7.57289 10.7191 7.57578C10.7302 7.57741 10.7414 7.57903 10.7528 7.5807C10.7755 7.58389 10.7983 7.58704 10.821 7.59015C10.8909 7.60042 10.9527 7.61676 11.0184 7.64029C11.0565 7.65282 11.0936 7.65766 11.1338 7.66197C11.2301 7.67507 11.319 7.7012 11.4106 7.73003C11.4632 7.74639 11.516 7.76115 11.5693 7.77535C11.6587 7.79967 11.7455 7.8284 11.8323 7.85912C11.9029 7.88373 11.9731 7.90138 12.0469 7.91685C12.0469 7.92614 12.0469 7.93542 12.0469 7.94498C12.0594 7.94614 12.072 7.9473 12.085 7.9485C12.2314 7.97625 12.3686 8.05198 12.5029 8.11021C12.513 8.11457 12.523 8.11892 12.5334 8.12341C12.6623 8.17931 12.7893 8.23654 12.912 8.30286C12.9529 8.32523 12.9529 8.32523 12.9966 8.34368C13.0476 8.36717 13.0941 8.39337 13.1417 8.4219C13.1505 8.42715 13.1593 8.43241 13.1684 8.43783C13.1869 8.44894 13.2054 8.46007 13.2239 8.47123C13.2515 8.48787 13.2792 8.50441 13.3069 8.52094C13.4808 8.6252 13.6463 8.73674 13.8047 8.85948C13.8424 8.8894 13.8424 8.8894 13.8906 8.90123C13.9091 8.92116 13.9275 8.94115 13.9454 8.96145C13.97 8.98685 13.9958 9.00769 14.0244 9.02939C14.2135 9.17645 14.393 9.3383 14.5422 9.51894C14.5758 9.55937 14.6111 9.59761 14.6475 9.636C14.7436 9.74089 14.8246 9.8558 14.9063 9.96998C14.9138 9.98047 14.9214 9.99096 14.9292 10.0018C14.9364 10.0118 14.9436 10.0219 14.9509 10.0322C14.9574 10.0412 14.9638 10.0502 14.9704 10.0595C14.9844 10.0825 14.9844 10.0825 14.9844 10.1106C14.9947 10.1106 15.005 10.1106 15.0156 10.1106C15.0194 10.1011 15.0232 10.0916 15.027 10.0818C15.1156 9.89636 15.2679 9.73308 15.4063 9.57623C15.4187 9.56204 15.4311 9.54784 15.4438 9.53322C15.6538 9.2974 15.8947 9.06041 16.1602 8.87503C16.1928 8.85218 16.2244 8.82895 16.2559 8.80482C16.4953 8.6226 16.761 8.46735 17.0313 8.32467C17.0401 8.31996 17.0489 8.31525 17.058 8.3104C17.2462 8.21034 17.4423 8.1259 17.6406 8.04342C17.6526 8.03844 17.6645 8.03347 17.6768 8.02835C17.8215 7.96854 17.9684 7.91827 18.119 7.87213C18.1588 7.8598 18.1985 7.84708 18.2381 7.83429C18.5297 7.74064 18.8257 7.64736 19.132 7.60237C19.1886 7.59324 19.2425 7.58016 19.2979 7.56617C19.546 7.50655 19.9897 7.40889 20.2329 7.49745C20.3001 7.53447 20.339 7.5723 20.375 7.6356C20.3806 7.67609 20.3806 7.67609 20.3803 7.72104C20.3803 7.74637 20.3803 7.74637 20.3803 7.77221C20.3801 7.79031 20.3798 7.8084 20.3796 7.82704C20.3795 7.84586 20.3794 7.86467 20.3794 7.88349C20.3792 7.93285 20.3787 7.98221 20.3782 8.03156C20.3777 8.082 20.3775 8.13243 20.3773 8.18286C20.3768 8.28169 20.376 8.38052 20.375 8.47935C20.3857 8.47923 20.3964 8.4791 20.4074 8.47898C20.5189 8.47773 20.6304 8.47688 20.742 8.47626C20.7836 8.47601 20.8251 8.4756 20.8667 8.47511C20.9266 8.47443 20.9865 8.47411 21.0464 8.47386C21.0741 8.47343 21.0741 8.47343 21.1024 8.47298C21.2183 8.47295 21.3127 8.482 21.3992 8.55646C21.4559 8.61451 21.4708 8.65853 21.4703 8.73396C21.4702 8.74779 21.4702 8.76161 21.4701 8.77585C21.47 8.79025 21.4699 8.80465 21.4697 8.81949C21.4697 8.83406 21.4696 8.84862 21.4695 8.86363C21.4693 8.8996 21.4691 8.93557 21.4688 8.97154C21.479 8.97135 21.4893 8.97117 21.4999 8.97097C21.6074 8.9691 21.7149 8.96783 21.8224 8.96691C21.8624 8.96648 21.9025 8.96591 21.9426 8.96518C22.0003 8.96415 22.058 8.96367 22.1157 8.9633C22.1424 8.96265 22.1424 8.96265 22.1697 8.96198C22.2691 8.96195 22.3328 8.97131 22.411 9.02814C22.4981 9.11933 22.5091 9.19025 22.508 9.30733C22.5081 9.32267 22.5082 9.33801 22.5083 9.35382C22.5085 9.40542 22.5083 9.45702 22.5081 9.50862C22.5082 9.54591 22.5084 9.5832 22.5085 9.62049C22.5088 9.70167 22.5088 9.78285 22.5087 9.86403C22.5085 9.98475 22.5087 10.1055 22.509 10.2262C22.5095 10.4543 22.5095 10.6824 22.5094 10.9106C22.5094 11.0867 22.5094 11.2629 22.5096 11.439C22.5096 11.4643 22.5096 11.4896 22.5096 11.5149C22.5097 11.5531 22.5097 11.5912 22.5097 11.6293C22.51 11.9838 22.5101 12.3383 22.51 12.6927C22.51 12.7061 22.51 12.7195 22.51 12.7333C22.51 12.801 22.5099 12.8687 22.5099 12.9365C22.5099 12.9567 22.5099 12.9567 22.5099 12.9773C22.5099 13.0045 22.5099 13.0317 22.5098 13.0589C22.5097 13.4823 22.5099 13.9057 22.5105 14.3292C22.5112 14.8048 22.5115 15.2804 22.5114 15.756C22.5114 15.8067 22.5113 15.8574 22.5113 15.9081C22.5113 15.9206 22.5113 15.9331 22.5113 15.9459C22.5113 16.1345 22.5115 16.323 22.5118 16.5116C22.5122 16.726 22.5122 16.9404 22.5119 17.1548C22.5117 17.2748 22.5117 17.3948 22.5121 17.5149C22.5124 17.595 22.5123 17.6752 22.5119 17.7553C22.5117 17.801 22.5118 17.8467 22.5121 17.8924C22.5124 17.9416 22.5121 17.9908 22.5117 18.04C22.5119 18.0542 22.5122 18.0683 22.5124 18.0829C22.5107 18.1836 22.4788 18.2466 22.4063 18.3231C22.3296 18.3859 22.2656 18.3869 22.167 18.3837C22.1482 18.3835 22.1482 18.3835 22.1289 18.3833C22.0694 18.3823 22.0112 18.3789 21.9521 18.3723C21.8761 18.3646 21.801 18.3632 21.7245 18.3632C21.7102 18.3632 21.6958 18.3632 21.681 18.3631C21.6338 18.363 21.5865 18.3629 21.5392 18.3629C21.5058 18.3629 21.4723 18.3628 21.4388 18.3628C21.3684 18.3627 21.2981 18.3627 21.2277 18.3627C21.1567 18.3627 21.0858 18.3626 21.0148 18.3624C20.5921 18.3613 20.1717 18.3652 19.75 18.3934C19.7236 18.3952 19.7236 18.3952 19.6966 18.3969C19.5929 18.4039 19.4893 18.412 19.3857 18.4207C19.3709 18.4219 19.3561 18.4231 19.3408 18.4244C19.1378 18.441 18.9351 18.4586 18.7335 18.4857C18.6793 18.493 18.625 18.4998 18.5708 18.5066C18.2731 18.5448 17.9787 18.5942 17.6844 18.6495C17.6313 18.6594 17.5782 18.6692 17.5251 18.6789C17.4979 18.6839 17.4706 18.689 17.4434 18.694C17.4314 18.6962 17.4195 18.6984 17.4072 18.7006C17.3554 18.7074 17.3554 18.7074 17.3125 18.7309C17.2902 18.7356 17.2677 18.7395 17.2451 18.7432C17.0709 18.7733 16.9028 18.8185 16.7344 18.868C16.7129 18.8743 16.6915 18.8806 16.6701 18.8868C16.3392 18.9827 16.3392 18.9827 16.0156 19.0965C16.0059 19.1003 15.9961 19.1041 15.986 19.108C15.8159 19.1742 15.6491 19.245 15.4844 19.3215C15.4668 19.3296 15.4668 19.3296 15.449 19.3379C15.4129 19.3546 15.3768 19.3714 15.3408 19.3883C15.3298 19.3935 15.3187 19.3986 15.3073 19.4039C15.2461 19.4329 15.1944 19.4648 15.1406 19.5044C15.0498 19.5316 14.9345 19.5336 14.8447 19.5008C14.7969 19.4762 14.7969 19.4762 14.761 19.4496C14.7159 19.418 14.671 19.3953 14.6202 19.3718C14.6109 19.3675 14.6016 19.3631 14.592 19.3587C14.562 19.3447 14.532 19.3309 14.502 19.3171C14.4813 19.3076 14.4606 19.2981 14.4399 19.2885C14.1713 19.1634 14.1713 19.1634 13.8887 19.0673C13.8439 19.0544 13.8002 19.0397 13.7562 19.0247C13.6765 18.9981 13.596 18.9737 13.5156 18.9489C13.3174 18.8876 13.3174 18.8876 13.248 18.8632C13.1724 18.8374 13.0946 18.8191 13.0166 18.8004C12.9946 18.795 12.9946 18.795 12.9722 18.7894C12.8927 18.7701 12.8132 18.7526 12.7328 18.737C12.6984 18.7299 12.6653 18.7208 12.6318 18.7107C12.5549 18.6894 12.4774 18.676 12.3982 18.6633C12.3309 18.6524 12.2641 18.6404 12.1973 18.6271C11.9117 18.5707 11.6216 18.5274 11.3311 18.4975C11.284 18.4922 11.238 18.485 11.1914 18.4769C11.115 18.4636 11.0391 18.4576 10.9614 18.4531C10.9219 18.4497 10.9219 18.4497 10.875 18.4356C10.7435 18.4177 10.6099 18.4098 10.4775 18.3996C10.4618 18.3983 10.4618 18.3983 10.4458 18.3971C9.93393 18.358 9.42152 18.359 8.9082 18.36C8.8779 18.3601 8.8779 18.3601 8.84698 18.3601C8.7102 18.3603 8.57342 18.3608 8.43665 18.3614C8.41894 18.3615 8.40124 18.3616 8.383 18.3617C8.20388 18.3625 8.02528 18.3633 7.84668 18.377C7.75847 18.3827 7.66574 18.38 7.59338 18.3289C7.58642 18.3206 7.57945 18.3123 7.57227 18.3038C7.56145 18.2914 7.56145 18.2914 7.55042 18.2788C7.51358 18.2288 7.4961 18.1923 7.49605 18.1317C7.49596 18.1186 7.49588 18.1056 7.49579 18.0921C7.49585 18.0778 7.49592 18.0634 7.49598 18.0487C7.49593 18.0334 7.49587 18.0181 7.49582 18.0023C7.49567 17.9506 7.49575 17.8989 7.49582 17.8472C7.49576 17.8099 7.49569 17.7726 7.49561 17.7353C7.49545 17.6541 7.4954 17.5728 7.49543 17.4915C7.49548 17.3707 7.49535 17.2498 7.49519 17.129C7.49489 16.9006 7.4948 16.6722 7.49478 16.4438C7.49477 16.2674 7.4947 16.0911 7.4946 15.9148C7.49457 15.864 7.49455 15.8133 7.49452 15.7626C7.49451 15.75 7.4945 15.7374 7.4945 15.7244C7.49431 15.3697 7.49418 15.0149 7.4942 14.6602C7.4942 14.6401 7.4942 14.6401 7.4942 14.6196C7.4942 14.5518 7.4942 14.484 7.49421 14.4161C7.49421 14.3959 7.49421 14.3959 7.49421 14.3753C7.49421 14.3481 7.49421 14.3208 7.49421 14.2936C7.49423 13.8697 7.494 13.4458 7.49357 13.0219C7.49309 12.5459 7.49282 12.07 7.49285 11.594C7.49285 11.5432 7.49285 11.4925 7.49285 11.4418C7.49285 11.4293 7.49285 11.4168 7.49286 11.4039C7.49286 11.2027 7.49266 11.0014 7.49239 10.8002C7.49212 10.598 7.49209 10.3959 7.4923 10.1937C7.49241 10.0735 7.49236 9.95336 7.49205 9.83318C7.49186 9.75295 7.4919 9.67272 7.49213 9.59249C7.49225 9.54675 7.49224 9.50101 7.49202 9.45527C7.4918 9.40602 7.49196 9.35678 7.49222 9.30753C7.49207 9.29329 7.49191 9.27906 7.49175 9.2644C7.49285 9.16673 7.51242 9.10507 7.58746 9.03142C7.65539 8.98414 7.6997 8.96976 7.78447 8.96995C7.80104 8.96995 7.81762 8.96995 7.8347 8.96995C7.85257 8.97002 7.87044 8.97009 7.88886 8.97017C7.91633 8.9702 7.91633 8.9702 7.94436 8.97023C8.00294 8.97031 8.06153 8.97048 8.12012 8.97066C8.1598 8.97073 8.19948 8.9708 8.23917 8.97086C8.33653 8.97101 8.43389 8.97125 8.53125 8.97154C8.53084 8.96276 8.53043 8.95398 8.53001 8.94493C8.52837 8.90458 8.52737 8.86425 8.52637 8.82389C8.52571 8.81007 8.52506 8.79626 8.52438 8.78203C8.52234 8.67164 8.55215 8.61021 8.63054 8.52728C8.68948 8.48189 8.74963 8.47586 8.825 8.47616C8.84283 8.47616 8.86065 8.47617 8.87902 8.47617C8.8981 8.47631 8.91717 8.47646 8.93683 8.47661C8.95649 8.47665 8.97615 8.47669 8.9964 8.47673C9.04847 8.47686 9.10053 8.47711 9.1526 8.47742C9.20581 8.47771 9.25902 8.47784 9.31223 8.47798C9.41649 8.47829 9.52074 8.47876 9.625 8.47935C9.62493 8.46971 9.62486 8.46006 9.62479 8.45012C9.6241 8.34952 9.62363 8.24891 9.62328 8.14831C9.62315 8.11078 9.62291 8.07326 9.62264 8.03574C9.62226 7.98174 9.62209 7.92774 9.62195 7.87373C9.62179 7.85702 9.62163 7.8403 9.62146 7.82307C9.62143 7.63172 9.62143 7.63172 9.69141 7.55475C9.86986 7.42334 10.1181 7.48294 10.3301 7.50728Z" fill="#1B1B1B"/>
<path d="M19.7969 8.04346C19.7969 10.6515 19.7969 13.2595 19.7969 15.9466C19.4833 15.9911 19.4833 15.9911 19.3493 16.0089C18.9027 16.0688 18.4742 16.1592 18.0527 16.3079C18.0021 16.3256 17.951 16.3409 17.8994 16.3562C17.4796 16.4907 17.0831 16.7028 16.7188 16.931C16.7026 16.941 16.7026 16.941 16.686 16.9513C16.562 17.0286 16.4431 17.1102 16.3281 17.1981C16.3191 17.205 16.31 17.2119 16.3007 17.219C16.1684 17.3197 16.0426 17.4237 15.9219 17.5356C15.8827 17.5711 15.8433 17.6063 15.8035 17.6412C15.651 17.7756 15.5226 17.9239 15.3946 18.0773C15.3862 18.0872 15.3778 18.0972 15.3691 18.1075C15.3616 18.1166 15.3541 18.1256 15.3463 18.1349C15.3403 18.1413 15.3343 18.1478 15.3281 18.1544C15.323 18.1544 15.3178 18.1544 15.3125 18.1544C15.3098 17.4463 15.3073 16.7381 15.3059 16.03C15.3059 16.0143 15.3059 16.0143 15.3058 15.9982C15.3054 15.7702 15.3049 15.5422 15.3045 15.3142C15.3043 15.2024 15.3041 15.0906 15.3039 14.9787C15.3039 14.9676 15.3039 14.9565 15.3039 14.945C15.3032 14.5847 15.302 14.2244 15.3006 13.8641C15.2991 13.4937 15.2981 13.1232 15.2978 12.7528C15.2978 12.7004 15.2977 12.648 15.2977 12.5956C15.2977 12.5802 15.2977 12.5802 15.2976 12.5644C15.2975 12.3988 15.2967 12.2332 15.2958 12.0676C15.2949 11.9009 15.2945 11.7342 15.2948 11.5675C15.2949 11.4773 15.2947 11.3871 15.2939 11.2968C15.2931 11.2141 15.2931 11.1313 15.2936 11.0486C15.2937 11.0188 15.2935 10.989 15.293 10.9592C15.2898 10.7575 15.3308 10.6181 15.4503 10.4466C15.4748 10.4113 15.4971 10.3751 15.5195 10.3388C15.5337 10.3172 15.5481 10.2956 15.5625 10.2741C15.5703 10.2625 15.5781 10.2509 15.5861 10.2389C15.6542 10.1387 15.7302 10.0471 15.8125 9.95596C15.8305 9.9349 15.8484 9.91381 15.8662 9.89268C15.8847 9.87152 15.9032 9.85043 15.9219 9.82939C15.9331 9.81669 15.9443 9.80398 15.9558 9.79089C16.1397 9.5886 16.3476 9.39801 16.5781 9.23877C16.5957 9.22584 16.6132 9.21285 16.6306 9.19982C16.9059 8.99537 17.21 8.83177 17.5225 8.67803C17.5384 8.67015 17.5543 8.66228 17.5707 8.65416C17.6552 8.613 17.7377 8.57872 17.8281 8.54971C17.8547 8.53782 17.8811 8.52553 17.9072 8.51279C18.2391 8.36101 18.6025 8.2646 18.9611 8.17936C18.9951 8.1712 19.029 8.16279 19.0629 8.1542C19.3025 8.09427 19.5471 8.04346 19.7969 8.04346Z" fill="#F2F4F3"/>
<path d="M10.2031 8.02954C10.581 8.07812 10.581 8.07812 10.6973 8.10513C10.7106 8.10811 10.724 8.11109 10.7378 8.11416C10.7784 8.12328 10.8189 8.13262 10.8594 8.14204C10.8785 8.14645 10.8785 8.14645 10.8981 8.15095C10.9843 8.17086 11.0703 8.19145 11.1563 8.21235C11.1743 8.2167 11.1743 8.2167 11.1927 8.22114C11.4693 8.28798 11.7323 8.37027 11.993 8.47789C12.054 8.50296 12.1153 8.52715 12.178 8.54854C12.5038 8.66321 12.8295 8.83994 13.1094 9.02798C13.1308 9.04215 13.1308 9.04215 13.1526 9.0566C13.2401 9.11505 13.3264 9.17487 13.4121 9.2354C13.4255 9.24484 13.4255 9.24484 13.4391 9.25448C13.5261 9.31615 13.6099 9.37865 13.6875 9.44985C13.7085 9.46832 13.7295 9.48675 13.7506 9.50517C13.8844 9.62301 14.0101 9.74105 14.1214 9.87663C14.1411 9.90046 14.1614 9.92386 14.1819 9.9472C14.2635 10.0404 14.3383 10.1356 14.4063 10.2374C14.4121 10.2461 14.418 10.2549 14.4241 10.2639C14.4439 10.2937 14.4637 10.3235 14.4834 10.3534C14.4894 10.3624 14.4954 10.3714 14.5015 10.3807C14.5141 10.4 14.5263 10.4193 14.5384 10.4388C14.5557 10.4658 14.5742 10.4923 14.5935 10.5183C14.7034 10.6738 14.7049 10.8159 14.7025 10.9962C14.7026 11.0272 14.7027 11.0582 14.7029 11.0892C14.7031 11.1738 14.7026 11.2585 14.702 11.3431C14.7015 11.4252 14.7016 11.5073 14.7017 11.5893C14.7019 11.7571 14.7015 11.9248 14.7007 12.0925C14.7 12.2585 14.6995 12.4245 14.6994 12.5905C14.6994 12.6008 14.6993 12.6111 14.6993 12.6218C14.6993 12.6743 14.6993 12.7268 14.6992 12.7793C14.699 13.1507 14.6981 13.5222 14.6969 13.8936C14.6958 14.2543 14.6949 14.6151 14.6944 14.9758C14.6943 14.9925 14.6943 14.9925 14.6943 15.0095C14.6942 15.1213 14.694 15.2331 14.6938 15.3448C14.6935 15.5725 14.6932 15.8001 14.6928 16.0278C14.6928 16.0435 14.6928 16.0435 14.6927 16.0595C14.6916 16.7578 14.6896 17.4562 14.6875 18.1545C14.6324 18.1057 14.5843 18.0566 14.5381 18.0007C14.3955 17.8323 14.2405 17.6793 14.0742 17.5296C14.062 17.5187 14.062 17.5187 14.0496 17.5075C13.9578 17.4248 13.8647 17.3443 13.7656 17.2686C13.7493 17.2558 13.733 17.2429 13.7167 17.2301C13.6067 17.1449 13.4937 17.0666 13.3743 16.9924C13.3419 16.9721 13.3098 16.9515 13.2776 16.9308C12.9178 16.7012 12.5202 16.5128 12.1094 16.3686C12.0845 16.3595 12.0596 16.3504 12.0347 16.3413C11.4354 16.1257 10.8409 16.0185 10.2031 15.9467C10.2031 13.3341 10.2031 10.7214 10.2031 8.02954Z" fill="#F2F4F3"/>
<path d="M9.125 8.99976C9.28484 8.99976 9.44469 8.99976 9.60937 8.99976C9.6094 9.0369 9.60942 9.07405 9.60944 9.11233C9.60985 9.76232 9.61034 10.4123 9.6112 11.0623C9.61121 11.0725 9.61122 11.0827 9.61124 11.0931C9.61153 11.3143 9.61184 11.5354 9.61215 11.7565C9.61231 11.8649 9.61247 11.9733 9.61262 12.0818C9.61263 12.0926 9.61265 12.1033 9.61266 12.1145C9.61315 12.4643 9.61344 12.814 9.61363 13.1638C9.61382 13.5233 9.61421 13.8827 9.61486 14.2421C9.61495 14.2929 9.61504 14.3436 9.61513 14.3944C9.61515 14.4044 9.61516 14.4144 9.61518 14.4247C9.61546 14.5855 9.61552 14.7464 9.61549 14.9073C9.61548 15.069 9.61569 15.2306 9.61613 15.3923C9.61636 15.48 9.61648 15.5676 9.61634 15.6552C9.61621 15.7354 9.61637 15.8156 9.61676 15.8958C9.61684 15.9248 9.61683 15.9538 9.6167 15.9829C9.61653 16.0223 9.61675 16.0617 9.61707 16.1012C9.61693 16.1125 9.61679 16.1238 9.61664 16.1354C9.61798 16.2225 9.64324 16.2973 9.71011 16.3624C9.7847 16.4217 9.84902 16.4263 9.94525 16.4344C9.96528 16.4361 9.98531 16.4378 10.006 16.4396C10.0477 16.4432 10.0894 16.4467 10.1311 16.4502C10.6024 16.491 11.064 16.5841 11.5139 16.7158C11.5662 16.731 11.6186 16.7441 11.6719 16.7561C11.7432 16.7731 11.8075 16.7979 11.874 16.8264C11.9191 16.8455 11.9645 16.8633 12.0103 16.881C12.1399 16.931 12.2664 16.9856 12.3918 17.0437C12.4202 17.0568 12.4489 17.0696 12.4776 17.0823C12.6627 17.1668 12.8305 17.2738 13 17.381C13.0177 17.3921 13.0354 17.4031 13.053 17.4142C13.2085 17.5133 13.3513 17.6274 13.492 17.7429C13.5141 17.7608 13.5363 17.7786 13.559 17.796C13.6413 17.8593 13.7156 17.9274 13.7891 17.9989C13.8004 18.0098 13.8118 18.0208 13.8235 18.0321C13.8511 18.0588 13.8787 18.0855 13.9062 18.1123C13.7496 18.1123 13.5485 17.968 13.4135 17.9013C13.3995 17.8944 13.3855 17.8875 13.3711 17.8804C13.3417 17.8659 13.3124 17.8512 13.2832 17.8365C13.2036 17.7966 13.127 17.7621 13.041 17.7352C12.9403 17.7028 12.8422 17.6664 12.7441 17.628C12.5357 17.5468 12.3283 17.471 12.1096 17.4154C12.0174 17.3918 11.9261 17.3659 11.8347 17.3402C11.4958 17.2449 11.1578 17.1504 10.8074 17.0952C10.7658 17.0883 10.7251 17.0807 10.6839 17.0721C10.5991 17.0549 10.5136 17.0429 10.4277 17.0312C10.4101 17.0288 10.3925 17.0264 10.3743 17.0239C9.95916 16.9679 9.5426 16.9284 9.125 16.8888C9.125 14.2854 9.125 11.682 9.125 8.99976Z" fill="#F2F3F3"/>
<path d="M20.3906 8.99976C20.5505 8.99976 20.7103 8.99976 20.875 8.99976C20.875 11.5985 20.875 14.1973 20.875 16.8748C20.8183 16.8794 20.7616 16.884 20.7031 16.8888C20.6733 16.8926 20.6435 16.8966 20.6138 16.9012C20.5185 16.9149 20.4229 16.926 20.3271 16.9367C20.3114 16.9384 20.2956 16.9402 20.2794 16.942C20.2139 16.9492 20.1484 16.9564 20.0829 16.9636C19.9146 16.9821 19.7465 17.0009 19.5787 17.0225C19.5603 17.0247 19.5603 17.0247 19.5415 17.027C19.4672 17.0368 19.3991 17.0533 19.3285 17.0763C19.2781 17.0913 19.2263 17.0958 19.1738 17.1015C18.9295 17.1326 18.6909 17.1961 18.4531 17.2544C18.4422 17.2571 18.4313 17.2598 18.4201 17.2625C17.8713 17.3974 17.3164 17.5654 16.8076 17.7976C16.7859 17.8075 16.7642 17.8174 16.7424 17.8272C16.731 17.8324 16.7197 17.8376 16.7079 17.8429C16.6702 17.8599 16.6324 17.8766 16.5945 17.8932C16.4575 17.9537 16.3237 18.0155 16.1952 18.0897C16.1723 18.1027 16.1487 18.1146 16.125 18.1263C16.1147 18.1217 16.1044 18.117 16.0938 18.1123C16.1015 18.1054 16.1093 18.0986 16.1172 18.0916C16.1713 18.0436 16.224 17.9953 16.2734 17.9435C16.3559 17.8575 16.4454 17.7787 16.5413 17.7048C16.5693 17.6831 16.5971 17.6612 16.6248 17.6391C17.0329 17.315 17.5032 17.0696 17.998 16.8695C18.0228 16.8594 18.0228 16.8594 18.048 16.8492C18.2784 16.758 18.5144 16.6913 18.7578 16.6348C18.7708 16.6318 18.7839 16.6287 18.7973 16.6256C18.8856 16.6051 18.974 16.5851 19.0625 16.5654C19.08 16.5615 19.0975 16.5576 19.1155 16.5535C19.2902 16.5157 19.465 16.4932 19.6434 16.4751C19.6605 16.4734 19.6776 16.4716 19.6953 16.4698C19.7824 16.4608 19.8695 16.4523 19.9568 16.4445C19.9893 16.4413 20.0218 16.4381 20.0543 16.4349C20.0767 16.4331 20.0767 16.4331 20.0996 16.4313C20.1856 16.4224 20.2403 16.4054 20.3054 16.3535C20.3719 16.2739 20.3818 16.1991 20.381 16.1029C20.3811 16.0906 20.3812 16.0782 20.3813 16.0656C20.3815 16.0242 20.3813 15.9829 20.3812 15.9416C20.3813 15.9117 20.3814 15.8818 20.3815 15.8519C20.3818 15.7697 20.3818 15.6876 20.3818 15.6054C20.3818 15.5167 20.382 15.4281 20.3822 15.3395C20.3826 15.186 20.3828 15.0324 20.3828 14.8789C20.3829 14.7178 20.3831 14.5568 20.3834 14.3957C20.3834 14.3857 20.3834 14.3757 20.3834 14.3654C20.3835 14.3145 20.3836 14.2637 20.3837 14.2128C20.3844 13.8526 20.3849 13.4925 20.3852 13.1323C20.3855 12.7824 20.386 12.4324 20.3865 12.0825C20.3865 12.0718 20.3866 12.061 20.3866 12.0499C20.3867 11.9415 20.3869 11.8332 20.3871 11.7249C20.3875 11.5042 20.3878 11.2836 20.3881 11.0629C20.3882 11.0528 20.3882 11.0426 20.3882 11.0322C20.3892 10.3547 20.3899 9.67723 20.3906 8.99976Z" fill="#F2F4F3"/>
<path d="M21.4688 9.49194C21.6183 9.49194 21.7678 9.49194 21.9219 9.49194C21.9219 12.2438 21.9219 14.9957 21.9219 17.831C21.4423 17.831 20.9628 17.831 20.4688 17.831C20.0739 17.8462 20.0739 17.8462 19.6801 17.8703C19.6419 17.8731 19.6037 17.8757 19.5655 17.8782C19.0626 17.9114 18.5629 17.9726 18.0659 18.0484C18.0332 18.0533 18.0004 18.0582 17.9677 18.063C17.8536 18.0798 17.7403 18.0989 17.627 18.1193C17.61 18.1223 17.593 18.1253 17.5754 18.1284C17.496 18.1426 17.4203 18.1584 17.3438 18.1826C17.2988 18.1843 17.2988 18.1843 17.2656 18.1826C17.3087 18.1438 17.3604 18.1288 17.416 18.1087C17.428 18.1044 17.44 18.1 17.4523 18.0955C17.7948 17.9713 18.143 17.8598 18.5 17.7748C18.569 17.7569 18.6375 17.7386 18.7051 17.7167C18.7512 17.7041 18.7939 17.6988 18.8418 17.6952C18.877 17.691 18.877 17.691 18.9167 17.6775C19.0181 17.6477 19.1234 17.6298 19.2275 17.6095C19.2402 17.607 19.253 17.6046 19.2661 17.602C19.7843 17.5017 20.3134 17.4247 20.8434 17.4014C20.8563 17.4009 20.8691 17.4003 20.8824 17.3997C20.9441 17.397 21.0058 17.3948 21.0676 17.3931C21.2323 17.3903 21.2323 17.3903 21.375 17.3248C21.4483 17.2466 21.4645 17.1779 21.463 17.0778C21.4631 17.0647 21.4632 17.0515 21.4633 17.0379C21.4636 16.9938 21.4634 16.9497 21.4631 16.9056C21.4632 16.8737 21.4633 16.8418 21.4635 16.8098C21.4639 16.722 21.4637 16.6343 21.4635 16.5465C21.4634 16.4616 21.4636 16.3766 21.4638 16.2917C21.4643 16.118 21.4644 15.9443 21.4643 15.7706C21.4642 15.5986 21.4642 15.4266 21.4645 15.2547C21.4645 15.244 21.4645 15.2333 21.4645 15.2222C21.4646 15.1679 21.4647 15.1136 21.4648 15.0593C21.4654 14.6746 21.4657 14.29 21.4657 13.9053C21.4657 13.5316 21.4659 13.1579 21.4664 12.7842C21.4664 12.767 21.4664 12.767 21.4664 12.7493C21.4665 12.6336 21.4667 12.518 21.4668 12.4023C21.4671 12.1666 21.4673 11.9309 21.4676 11.6953C21.4676 11.679 21.4676 11.679 21.4676 11.6624C21.4684 10.9389 21.4686 10.2154 21.4688 9.49194Z" fill="#F1F2F1"/>
<path d="M8.07812 9.49194C8.22766 9.49194 8.37719 9.49194 8.53125 9.49194C8.53124 9.53162 8.53124 9.57129 8.53123 9.61216C8.53114 10.3063 8.53117 11.0005 8.53175 11.6947C8.53176 11.7055 8.53177 11.7164 8.53178 11.7276C8.53197 11.9638 8.53219 12.1999 8.53243 12.436C8.53255 12.5519 8.53267 12.6677 8.53278 12.7835C8.53279 12.8008 8.53279 12.8008 8.53281 12.8184C8.53317 13.192 8.53322 13.5655 8.53312 13.9391C8.53301 14.3229 8.53321 14.7068 8.5338 15.0907C8.53388 15.1449 8.53396 15.1991 8.53404 15.2533C8.53406 15.264 8.53407 15.2747 8.53409 15.2857C8.53432 15.4574 8.53424 15.6292 8.53403 15.801C8.53383 15.9737 8.53397 16.1464 8.53446 16.3191C8.53471 16.4127 8.5348 16.5062 8.53449 16.5998C8.53421 16.6855 8.53436 16.7711 8.53485 16.8567C8.53495 16.8877 8.5349 16.9187 8.53467 16.9497C8.53438 16.9919 8.53467 17.034 8.5351 17.0761C8.53487 17.0882 8.53465 17.1002 8.53442 17.1126C8.53635 17.2065 8.57409 17.2673 8.64062 17.3388C8.69703 17.3799 8.74142 17.3868 8.81311 17.3898C8.84131 17.3912 8.84131 17.3912 8.87008 17.3926C8.89039 17.3934 8.91071 17.3942 8.93164 17.3951C8.97537 17.3972 9.01909 17.3995 9.06281 17.4017C9.07417 17.4023 9.08553 17.4029 9.09724 17.4034C9.22809 17.4101 9.35868 17.4194 9.48926 17.4293C9.50677 17.4307 9.50677 17.4307 9.52463 17.432C9.67563 17.4437 9.82499 17.4586 9.974 17.4841C10.0289 17.4931 10.0833 17.4993 10.1387 17.5049C10.2874 17.5222 10.4329 17.5529 10.5792 17.5818C10.6675 17.5992 10.756 17.6159 10.8446 17.6319C10.8565 17.6341 10.8684 17.6363 10.8806 17.6385C10.9276 17.647 10.9747 17.6556 11.0217 17.664C11.1313 17.6836 11.2394 17.7031 11.3448 17.7372C11.4138 17.7588 11.4859 17.7715 11.5569 17.7866C11.7434 17.8292 11.9236 17.895 12.104 17.9546C12.1372 17.9656 12.1704 17.9765 12.2036 17.9875C12.2143 17.991 12.225 17.9945 12.236 17.9981C12.301 18.0194 12.3662 18.0395 12.4319 18.0589C12.4942 18.0773 12.5539 18.0975 12.6133 18.1228C12.6275 18.1288 12.6418 18.1348 12.6565 18.141C12.6667 18.1455 12.677 18.1499 12.6875 18.1544C12.6255 18.1755 12.5742 18.1622 12.5107 18.15C12.4809 18.1445 12.4809 18.1445 12.4504 18.1388C12.4127 18.1309 12.3751 18.1221 12.3381 18.112C12.2681 18.095 12.1987 18.0864 12.127 18.078C12.0275 18.0662 11.9288 18.0523 11.8301 18.0362C11.6729 18.0107 11.5148 17.9909 11.3564 17.9716C11.3338 17.9689 11.3338 17.9689 11.3107 17.9661C10.8309 17.9079 10.3508 17.8734 9.86759 17.8473C9.8312 17.8452 9.79483 17.843 9.75845 17.8408C9.5379 17.828 9.31711 17.8289 9.0962 17.8292C9.0404 17.8293 8.98461 17.8292 8.92881 17.8291C8.62642 17.8283 8.62642 17.8283 8.32453 17.8421C8.24252 17.8462 8.16027 17.8451 8.07812 17.8451C8.07812 15.0885 8.07812 12.332 8.07812 9.49194Z" fill="#F1F2F1"/>
<path d="M22.4688 9.1123C22.5017 9.15676 22.5039 9.167 22.5039 9.21771C22.504 9.23077 22.504 9.24382 22.5041 9.25727C22.504 9.27167 22.5039 9.28607 22.5038 9.3009C22.5039 9.31621 22.5039 9.33153 22.504 9.34731C22.504 9.39915 22.5039 9.451 22.5038 9.50284C22.5038 9.54018 22.5038 9.57751 22.5038 9.61484C22.5039 9.69628 22.5039 9.77772 22.5037 9.85916C22.5035 9.98026 22.5035 10.1014 22.5036 10.2225C22.5036 10.4262 22.5035 10.6298 22.5033 10.8335C22.5031 11.0353 22.503 11.237 22.503 11.4388C22.503 11.4513 22.503 11.4638 22.503 11.4767C22.5029 11.5404 22.5029 11.604 22.5029 11.6677C22.5029 12.1188 22.5027 12.5698 22.5024 13.0209C22.5021 13.4592 22.5018 13.8975 22.5017 14.3358C22.5017 14.3493 22.5017 14.3628 22.5017 14.3767C22.5017 14.5123 22.5016 14.6479 22.5016 14.7835C22.5015 15.0598 22.5014 15.336 22.5013 15.6123C22.5013 15.625 22.5013 15.6377 22.5013 15.6508C22.501 16.4994 22.5005 17.3481 22.5 18.1967C22.4948 18.1967 22.4897 18.1967 22.4844 18.1967C22.4844 18.1889 22.4844 18.181 22.4843 18.173C22.4831 17.3219 22.4819 16.4708 22.4806 15.6198C22.4805 15.607 22.4805 15.5943 22.4805 15.5813C22.4801 15.3052 22.4796 15.0292 22.4792 14.7531C22.479 14.6177 22.4788 14.4824 22.4786 14.347C22.4785 14.3335 22.4785 14.3201 22.4785 14.3062C22.4778 13.8692 22.4772 13.4322 22.4765 12.9952C22.4759 12.5463 22.4752 12.0974 22.4745 11.6485C22.4744 11.5851 22.4743 11.5218 22.4742 11.4585C22.4742 11.446 22.4741 11.4335 22.4741 11.4207C22.4738 11.2196 22.4735 11.0186 22.4732 10.8176C22.473 10.6157 22.4727 10.4138 22.4723 10.2119C22.4721 10.0918 22.4719 9.97169 22.4718 9.8516C22.4717 9.77151 22.4716 9.69142 22.4714 9.61133C22.4713 9.56561 22.4712 9.51989 22.4712 9.47417C22.4712 9.42507 22.4711 9.37596 22.4709 9.32685C22.4709 9.31247 22.4709 9.29808 22.471 9.28325C22.4709 9.27027 22.4709 9.25729 22.4708 9.24391C22.4708 9.23266 22.4708 9.22142 22.4707 9.20984C22.4706 9.18145 22.4706 9.18145 22.4531 9.15449C22.4583 9.14057 22.4634 9.12665 22.4688 9.1123Z" fill="#272727"/>
<path d="M13.6094 17.845C13.6827 17.8978 13.7472 17.955 13.8105 18.0172C13.8182 18.0247 13.8258 18.0322 13.8337 18.0399C13.8885 18.0944 13.8885 18.0944 13.9062 18.1262C13.8491 18.1068 13.7965 18.0836 13.7432 18.0568C13.6835 18.0271 13.6238 17.9984 13.5625 17.9715C13.5702 17.9637 13.578 17.9559 13.5859 17.9478C13.6132 17.9099 13.6135 17.8892 13.6094 17.845Z" fill="#D9DAD9"/>
<path d="M17.6562 18.042C17.6511 18.0559 17.6459 18.0698 17.6406 18.0842C17.6509 18.0935 17.6612 18.1027 17.6719 18.1123C17.6276 18.1215 17.5833 18.1305 17.5391 18.1396C17.5267 18.1421 17.5143 18.1447 17.5016 18.1473C17.4231 18.1633 17.3457 18.1748 17.2656 18.1826C17.2969 18.1545 17.3157 18.1455 17.3558 18.1307C17.3674 18.1264 17.379 18.1221 17.391 18.1177C17.4031 18.1133 17.4152 18.1089 17.4277 18.1044C17.4397 18.0999 17.4517 18.0955 17.4641 18.0909C17.5975 18.042 17.5975 18.042 17.6562 18.042Z" fill="#CCCCCC"/>
<path d="M16.3281 17.8872C16.3281 17.9011 16.3281 17.9151 16.3281 17.9294C16.3302 17.9429 16.3322 17.9564 16.3344 17.9703C16.3281 18.0138 16.3281 18.0138 16.2848 18.0471C16.2662 18.0571 16.2475 18.0668 16.2285 18.0762C16.2144 18.0838 16.2144 18.0838 16.2 18.0916C16.1757 18.1043 16.1504 18.1154 16.125 18.1263C16.1147 18.1216 16.1044 18.117 16.0938 18.1122C16.1054 18.102 16.1054 18.102 16.1172 18.0916C16.1911 18.026 16.2609 17.9583 16.3281 17.8872Z" fill="#DADBDB"/>
<path d="M16.6719 9.16846C16.6822 9.1731 16.6925 9.17774 16.7031 9.18252C16.626 9.24441 16.5487 9.30613 16.4706 9.36709C16.4456 9.38699 16.421 9.40728 16.3966 9.42773C16.3758 9.44514 16.3758 9.44514 16.3545 9.46289C16.3417 9.47375 16.3288 9.48461 16.3156 9.49579C16.2812 9.52002 16.2812 9.52002 16.2344 9.52002C16.3433 9.41856 16.4551 9.32648 16.5781 9.23877C16.5974 9.22448 16.6166 9.21014 16.6357 9.1957C16.6477 9.18671 16.6596 9.17772 16.6719 9.16846Z" fill="#CDCFCE"/>
<path d="M12.4062 18.0559C12.5058 18.0778 12.5951 18.1149 12.6875 18.1543C12.6247 18.1763 12.5672 18.1608 12.5039 18.1482C12.493 18.1461 12.4821 18.144 12.4709 18.1419C12.4441 18.1368 12.4174 18.1315 12.3906 18.1262C12.3958 18.103 12.4009 18.0798 12.4062 18.0559Z" fill="#CECECE"/>
<path d="M16.8594 17.4653C16.8697 17.47 16.88 17.4746 16.8906 17.4794C16.8708 17.5329 16.8445 17.5369 16.7915 17.5621C16.7545 17.5846 16.745 17.6101 16.7344 17.6481C16.7137 17.6389 16.6931 17.6296 16.6719 17.62C16.7313 17.5649 16.794 17.5147 16.8594 17.4653Z" fill="#D4D5D4"/>
<path d="M16.875 16.8186C16.8853 16.8232 16.8956 16.8279 16.9062 16.8327C16.875 16.8749 16.875 16.8749 16.8281 16.8889C16.8178 16.8982 16.8075 16.9075 16.7969 16.917C16.7266 16.9592 16.7266 16.9592 16.6719 16.9592C16.73 16.9001 16.8018 16.8608 16.875 16.8186Z" fill="#383838"/>
<path d="M15.2969 9.70288C15.302 9.71216 15.3072 9.72144 15.3125 9.73101C15.2977 9.75105 15.2828 9.77109 15.2679 9.7911C15.2508 9.81423 15.2343 9.83765 15.2178 9.86108C15.1875 9.89976 15.1875 9.89976 15.1406 9.92788C15.1632 9.8695 15.1953 9.82523 15.2363 9.77583C15.2476 9.76211 15.259 9.74839 15.2706 9.73425C15.2836 9.71872 15.2836 9.71872 15.2969 9.70288Z" fill="#414242"/>
<path d="M17.4844 18.1122C17.4689 18.1168 17.4534 18.1215 17.4375 18.1263C17.4375 18.1355 17.4375 18.1448 17.4375 18.1544C17.3778 18.1744 17.3295 18.1859 17.2656 18.1825C17.3008 18.1509 17.3291 18.1403 17.375 18.1236C17.3889 18.1185 17.4027 18.1134 17.417 18.1081C17.4531 18.0981 17.4531 18.0981 17.4844 18.1122Z" fill="#B1B1B1"/>
<path d="M17.6094 18.0982C17.6094 18.1074 17.6094 18.1167 17.6094 18.1263C17.5527 18.1309 17.4959 18.1356 17.4375 18.1404C17.497 18.0868 17.5294 18.075 17.6094 18.0982Z" fill="#E9E9E9"/>
<path d="M16.3906 17.9294C16.4009 17.9341 16.4113 17.9387 16.4219 17.9435C16.4219 17.9528 16.4219 17.9621 16.4219 17.9716C16.3909 17.9856 16.36 17.9995 16.3281 18.0138C16.3281 17.9953 16.3281 17.9767 16.3281 17.9576C16.3574 17.9426 16.3574 17.9426 16.3906 17.9294Z" fill="#E7E9E8"/>
<path d="M16.7344 17.5637C16.7447 17.5684 16.755 17.573 16.7656 17.5778C16.7553 17.601 16.745 17.6242 16.7344 17.6481C16.7138 17.6388 16.6931 17.6295 16.6719 17.62C16.6925 17.6014 16.7131 17.5828 16.7344 17.5637Z" fill="#E0E1E0"/>
</g>
<defs>
<clipPath id="clip0_95185_1298">
<rect width="30" height="27" fill="white" transform="translate(0 -0.000244141)"/>
</clipPath>
</defs>
</svg>
