<svg width="28" height="28" viewBox="0 0 28 28" fill="none" xmlns="http://www.w3.org/2000/svg">
<mask id="mask0_95022_4180" style="mask-type:alpha" maskUnits="userSpaceOnUse" x="0" y="0" width="28" height="28">
<rect width="28" height="28" fill="#D9D9D9"/>
</mask>
<g mask="url(#mask0_95022_4180)">
<mask id="mask1_95022_4180" style="mask-type:alpha" maskUnits="userSpaceOnUse" x="2" y="2" width="24" height="24">
<rect x="2" y="2" width="24" height="24" fill="#D9D9D9"/>
</mask>
<g mask="url(#mask1_95022_4180)">
<path d="M9.5 5C10.3667 5 11.1917 5.18333 11.975 5.55C12.7583 5.91667 13.4333 6.43333 14 7.1C14.5667 6.43333 15.2417 5.91667 16.025 5.55C16.8083 5.18333 17.6333 5 18.5 5C20.0667 5 21.375 5.525 22.425 6.575C23.475 7.625 24 8.93333 24 10.5C24 10.5833 23.9958 10.6667 23.9875 10.75C23.9792 10.8333 23.975 10.9167 23.975 11H21.975C21.9917 10.9167 22 10.8333 22 10.75V10.5C22 9.5 21.6667 8.66667 21 8C20.3333 7.33333 19.5 7 18.5 7C17.7167 7 16.9917 7.22083 16.325 7.6625C15.6583 8.10417 15.2 8.66667 14.95 9.35H13.05C12.8 8.66667 12.3417 8.10417 11.675 7.6625C11.0083 7.22083 10.2833 7 9.5 7C8.5 7 7.66667 7.33333 7 8C6.33333 8.66667 6 9.5 6 10.5V10.75C6 10.8333 6.00833 10.9167 6.025 11H4.025C4.025 10.9167 4.02083 10.8333 4.0125 10.75C4.00417 10.6667 4 10.5833 4 10.5C4 8.93333 4.525 7.625 5.575 6.575C6.625 5.525 7.93333 5 9.5 5ZM7.3 17H10.1C10.6333 17.5167 11.2167 18.075 11.85 18.675C12.4833 19.275 13.2 19.9333 14 20.65C14.8 19.9333 15.5167 19.275 16.15 18.675C16.7833 18.075 17.3667 17.5167 17.9 17H20.725C20.0917 17.7 19.3417 18.4583 18.475 19.275C17.6083 20.0917 16.6 21.0167 15.45 22.05L14 23.35L12.55 22.05C11.4 21.0167 10.3958 20.0917 9.5375 19.275C8.67917 18.4583 7.93333 17.7 7.3 17ZM13.05 18C13.2667 18 13.4542 17.9375 13.6125 17.8125C13.7708 17.6875 13.8833 17.525 13.95 17.325L15.3 13.25L16.175 14.55C16.2583 14.6833 16.375 14.7917 16.525 14.875C16.675 14.9583 16.8333 15 17 15H25V13H17.575L15.85 10.45C15.75 10.3 15.6208 10.1875 15.4625 10.1125C15.3042 10.0375 15.1333 10 14.95 10C14.7333 10 14.5458 10.0625 14.3875 10.1875C14.2292 10.3125 14.1167 10.475 14.05 10.675L12.7 14.725L11.85 13.45C11.7667 13.3167 11.65 13.2083 11.5 13.125C11.35 13.0417 11.1917 13 11.025 13H3V15H10.425L12.15 17.55C12.25 17.7 12.3792 17.8125 12.5375 17.8875C12.6958 17.9625 12.8667 18 13.05 18Z" fill="#5D4FB3"/>
</g>
</g>
</svg>
