<svg width="243" height="199" viewBox="0 0 243 199" fill="none" xmlns="http://www.w3.org/2000/svg">
<g clip-path="url(#clip0_95021_7240)">
<path d="M47.4741 70.78L47.4718 70.7775L34.1071 56.5604C34.107 56.5603 34.107 56.5602 34.1069 56.5602C33.6982 56.1245 33.4792 55.5443 33.4982 54.9471C33.5172 54.3499 33.7727 53.7847 34.2084 53.3759C34.6441 52.967 35.2244 52.748 35.8216 52.767C36.4188 52.786 36.984 53.0414 37.3929 53.4771L37.3929 53.4772L48.7229 65.5497L49.0923 65.9433L49.4565 65.5449L72.584 40.2449L72.5948 40.233L72.6048 40.2206C72.7969 39.9814 73.0358 39.7841 73.3068 39.6407C73.5779 39.4972 73.8754 39.4107 74.1812 39.3864C74.4869 39.3622 74.7943 39.4007 75.0847 39.4996C75.375 39.5984 75.642 39.7556 75.8693 39.9615C76.0967 40.1673 76.2795 40.4175 76.4067 40.6965C76.5338 40.9756 76.6026 41.2778 76.6087 41.5844C76.6149 41.891 76.5583 42.1956 76.4424 42.4796C76.3265 42.7635 76.1538 43.0208 75.9348 43.2356L75.9251 43.2451L75.9159 43.2552L50.7809 70.7552L50.7788 70.7575C50.571 70.9878 50.3178 71.1727 50.0351 71.3005C49.7534 71.4278 49.4484 71.4958 49.1392 71.5L49.1166 71.5C49.1162 71.5 49.1159 71.5 49.1155 71.5C48.8074 71.4989 48.5027 71.4344 48.2205 71.3107C47.938 71.1869 47.6839 71.0062 47.4741 70.78Z" fill="white" stroke="white"/>
</g>
<path d="M162.028 82.1048C118.211 73.4963 87.8893 82.1048 87.8893 82.1048C87.8893 82.1048 76.4794 140.199 115.568 151.408V186.811H133.682V151.797C170.701 142.081 162.028 82.1048 162.028 82.1048Z" fill="#FBC343"/>
<path d="M127.367 93.7684L131.109 101.447C131.446 102.137 132.096 102.616 132.85 102.727L141.218 103.959C143.114 104.238 143.872 106.598 142.499 107.952L136.444 113.929C135.899 114.468 135.65 115.242 135.779 116.002L137.209 124.44C137.532 126.353 135.55 127.812 133.853 126.909L126.369 122.925C125.696 122.566 124.89 122.566 124.217 122.925L116.733 126.909C115.037 127.812 113.054 126.353 113.378 124.44L114.808 116.002C114.937 115.242 114.688 114.467 114.142 113.929L108.087 107.952C106.715 106.598 107.471 104.237 109.368 103.959L117.736 102.727C118.49 102.616 119.14 102.137 119.477 101.447L123.22 93.7684C124.068 92.0284 126.519 92.0284 127.367 93.7684Z" fill="#FFDD7A"/>
<path d="M136.643 121.095C136.411 120.945 136.178 120.797 135.95 120.644C132.577 118.388 129.425 115.785 126.609 112.846C123.663 109.772 121.056 106.353 119.134 102.527C119.071 102.402 119.011 102.277 118.949 102.151C118.614 102.456 118.196 102.661 117.738 102.727L109.37 103.958C107.474 104.238 106.716 106.598 108.088 107.952L114.144 113.929C114.689 114.467 114.938 115.242 114.809 116.001L113.379 124.44C113.055 126.353 115.037 127.811 116.734 126.909L124.219 122.925C124.892 122.566 125.697 122.566 126.37 122.925L133.855 126.909C135.55 127.811 137.533 126.353 137.21 124.44L136.643 121.095Z" fill="#FFF7BA"/>
<path d="M113.379 124.441L114.808 116.002C114.937 115.242 114.689 114.467 114.143 113.929L108.088 107.952C106.716 106.598 107.472 104.237 109.369 103.959L117.737 102.728C118.491 102.616 119.141 102.138 119.478 101.447L123.22 93.7685C123.607 92.9747 124.327 92.5474 125.077 92.4775H123.12C122.226 92.3939 121.291 92.8212 120.829 93.7685L117.087 101.447C116.75 102.138 116.099 102.616 115.346 102.728L106.978 103.959C105.082 104.238 104.324 106.598 105.696 107.952L111.752 113.929C112.297 114.468 112.546 115.242 112.417 116.002L110.987 124.441C110.755 125.807 111.702 126.942 112.88 127.149H115.275C114.095 126.944 113.147 125.808 113.379 124.441Z" fill="#E05318"/>
<path d="M153.393 198.498C153.404 198.302 153.409 198.105 153.409 197.906C153.409 191.803 148.478 186.808 142.45 186.808H106.801C100.773 186.808 95.8409 191.801 95.8409 197.906C95.8409 198.104 95.8466 198.302 95.8568 198.498H153.393Z" fill="#F29019"/>
<path d="M110.523 193.645V186.81H106.801C100.773 186.81 95.8409 191.803 95.8409 197.908C95.8409 198.106 95.8466 198.304 95.8568 198.5H153.392C153.402 198.304 153.408 198.107 153.408 197.908C153.408 196.4 153.106 194.96 152.562 193.646H110.523V193.645Z" fill="#EC6F17"/>
<path d="M152.889 98.1879C153.407 104.416 152.348 112.646 151.419 118.825C151.276 119.78 151.116 120.757 151.305 121.702C151.494 122.647 152.121 123.571 153.046 123.803C153.962 124.033 154.938 123.522 155.53 122.777C156.123 122.034 156.412 121.093 156.671 120.174C159.225 111.13 159.711 103.291 158.905 93.8808C158.627 90.639 158.022 85.9997 154.07 87.7203C150.101 89.45 152.578 94.449 152.889 98.1879Z" fill="white"/>
<path d="M149.982 126.002C148.196 126.63 147.626 129.376 149.01 130.678C150.393 131.98 153.056 131.204 153.544 129.355C154.031 127.506 152.105 125.489 150.264 125.92" fill="white"/>
<path d="M179.76 97.6613C178.6 95.8743 176.87 94.2557 174.647 93.4699C171.188 92.2476 166.131 91.3312 162.787 91.1812C162.893 93.6028 162.949 96.4024 162.885 99.4448C164.387 99.6533 165.891 99.8354 167.336 100.287C169.449 100.947 171.508 102.341 172.205 104.466C172.568 105.573 172.528 106.769 172.465 107.933C172.157 113.609 171.385 119.259 170.156 124.805C169.973 125.63 169.756 126.499 169.163 127.095C168.262 128 166.829 127.979 165.563 127.899C163.124 127.745 160.685 127.59 158.246 127.435C157.109 130.561 155.711 133.577 154 136.375C157.701 137.466 161.6 138.025 165.436 138.249C167.889 138.392 170.439 138.155 172.605 136.981C176.623 134.802 177.714 130.074 178.419 125.873C179.631 118.637 180.428 111.328 180.801 103.998C180.912 101.822 180.944 99.4826 179.76 97.6613Z" fill="#F29019"/>
<path d="M83.6889 127.9C82.4231 127.98 80.9898 128.001 80.0893 127.096C79.4965 126.5 79.2793 125.63 79.0961 124.806C77.8675 119.259 77.0949 113.61 76.7872 107.934C76.7238 106.769 76.6842 105.573 77.0474 104.466C77.7442 102.341 79.8031 100.947 81.9163 100.287C83.3541 99.8383 84.8507 99.6561 86.3451 99.4488C86.3757 96.3995 86.5318 93.5953 86.7331 91.1714C83.3959 91.2814 78.156 92.2161 74.6039 93.4704C72.3809 94.2562 70.6513 95.8748 69.4906 97.6618C68.3073 99.4832 68.339 101.822 68.4498 104C68.8232 111.33 69.6184 118.638 70.8323 125.874C71.537 130.076 72.6276 134.804 76.6458 136.982C78.8121 138.157 81.362 138.394 83.8145 138.251C87.6042 138.029 91.4561 137.483 95.1169 136.418C93.2831 133.614 91.8091 130.592 90.6326 127.46C88.318 127.606 86.0035 127.753 83.6889 127.9Z" fill="#EC6F17"/>
<path d="M124.959 153.073C124.776 153.058 124.597 153.039 124.415 153.022C123.354 152.926 122.321 152.799 121.317 152.647C121.207 152.63 121.096 152.615 120.988 152.598C120.721 152.556 120.457 152.51 120.193 152.464C120.045 152.438 119.896 152.412 119.749 152.385C118.295 152.116 116.901 151.789 115.569 151.408V186.811H124.627V157.408L133.482 151.85C130.871 152.517 128.039 152.939 124.959 153.073Z" fill="#EC6F17"/>
<path d="M109.474 111.681L105.696 107.953C104.324 106.599 105.081 104.238 106.978 103.959L109.338 103.612L109.081 88.4802L133.444 78.5453C105.574 77.0847 87.8915 82.1044 87.8915 82.1044C87.8915 82.1044 74.7532 148.994 124.962 153.073C129.961 152.856 134.314 151.882 138.106 150.316C134.95 149.074 112.854 132.547 109.804 131.052L109.474 111.681Z" fill="#F29019"/>
<path d="M70.194 86.0734C68.798 87.1616 67.2765 88.1479 65.5072 88.9784C59.041 92.0117 54.008 90.3553 48.6787 88.6015C47.6809 88.2739 46.647 87.9325 45.5598 87.6072C44.3584 87.2475 43.26 86.8489 42.2883 86.4984C39.054 85.3277 37.1003 84.6209 34.0957 85.8638C31.5493 86.9165 29.1601 89.0609 26.8501 91.1342C26.2154 91.7024 25.591 92.2637 24.9722 92.7964C23.9393 93.6853 22.4348 93.5432 21.5728 92.5146C20.7108 91.4859 20.8363 89.9463 21.8511 89.0723C22.445 88.5626 23.0434 88.0253 23.6497 87.4801C26.1396 85.2429 28.9621 82.7102 32.2699 81.3436C36.9827 79.3939 40.347 80.6116 43.9082 81.9015C44.8641 82.2474 45.8506 82.6048 46.9219 82.9255C48.0531 83.2635 49.1278 83.6174 50.1652 83.9599C55.1359 85.5946 58.7276 86.7779 63.4755 84.5499C66.7618 83.0092 69.1035 80.701 71.8162 78.0308C72.2947 77.5588 72.7789 77.0823 73.2766 76.6023C74.2495 75.6688 75.7677 75.7088 76.6851 76.6848C77.6037 77.6608 77.5686 79.2061 76.6037 80.1362C76.1183 80.6047 75.6455 81.071 75.1783 81.5314C73.5527 83.1317 71.9757 84.685 70.194 86.0734Z" fill="#896CFE"/>
<path d="M145.134 60.6562C144.943 60.6493 144.75 60.6195 144.557 60.5634C143.277 60.1945 142.535 58.8428 142.899 57.5461C143.083 56.8932 143.256 56.2494 143.429 55.6137C144.5 51.6605 145.512 47.9285 148.036 44.2273C152.095 38.2867 157.269 37.1286 162.748 35.9018C163.766 35.6727 164.821 35.4379 165.916 35.1618C167.128 34.8548 168.273 34.6349 169.282 34.439C172.661 33.7849 174.701 33.3909 176.67 30.7734C178.341 28.5557 179.326 25.4754 180.279 22.4948C180.538 21.6838 180.793 20.8865 181.058 20.1144C181.495 18.8406 182.875 18.1682 184.127 18.6115C185.385 19.0537 186.049 20.4455 185.611 21.7193C185.358 22.4581 185.114 23.2222 184.865 23.9977C183.838 27.2097 182.674 30.8513 180.504 33.7322C177.414 37.8354 173.903 38.5147 170.186 39.2329C169.191 39.4254 168.162 39.6235 167.082 39.8973C165.944 40.1848 164.847 40.43 163.789 40.6671C158.676 41.8115 154.982 42.6385 152.002 47.0006C149.945 50.0179 149.08 53.2092 148.079 56.9046C147.901 57.5553 147.724 58.214 147.536 58.8829C147.227 59.9872 146.217 60.6951 145.134 60.6562Z" fill="#896CFE"/>
<path d="M203.445 97.128C200.629 95.5678 199.113 93.2264 197.532 90.7819C196.977 89.925 196.403 89.0373 195.74 88.13C195.043 87.1735 194.399 86.2399 193.777 85.3396C190.78 80.9901 188.617 77.8491 183.499 76.7265C179.955 75.9521 176.711 76.3611 172.953 76.8342C172.294 76.9178 171.626 77.0014 170.945 77.0805C169.623 77.2351 168.426 76.2729 168.275 74.9338C168.124 73.5947 169.073 72.3839 170.395 72.2304C171.059 72.1536 171.712 72.07 172.357 71.9898C176.376 71.4835 180.172 71.0059 184.517 71.9555C191.487 73.487 194.519 77.8869 197.73 82.5457C198.327 83.4128 198.947 84.3109 199.616 85.2307C200.358 86.2479 200.997 87.2342 201.561 88.106C203.446 91.0178 204.583 92.775 207.724 93.6193C210.379 94.3341 213.557 94.0821 216.632 93.8381C217.479 93.7705 218.314 93.704 219.127 93.6582C220.459 93.5815 221.595 94.6147 221.669 95.9595C221.745 97.3055 220.727 98.459 219.397 98.5335C218.618 98.5782 217.818 98.6412 217.007 98.7053C213.693 98.9688 209.934 99.2655 206.486 98.3376C205.322 98.0237 204.32 97.6125 203.445 97.128Z" fill="#896CFE"/>
<path d="M90.3519 60.0056C89.8055 60.4318 89.0702 60.5944 88.3586 60.3756C87.7726 60.1969 87.1945 60.0263 86.6221 59.859C83.0293 58.8006 79.6355 57.8017 76.2915 55.3835C70.9418 51.5106 69.9588 46.6617 68.9203 41.5275C68.7257 40.571 68.5255 39.579 68.2891 38.5503C68.0277 37.4117 67.8422 36.3384 67.6793 35.391C67.134 32.2237 66.8049 30.313 64.4462 28.4332C62.4473 26.8421 59.6553 25.8753 56.9539 24.9406C56.2186 24.6863 55.4923 24.4343 54.7921 24.1754C53.6427 23.7481 53.0522 22.4583 53.4719 21.2944C53.8927 20.1306 55.1665 19.5327 56.317 19.9576C56.9867 20.2051 57.6824 20.4468 58.3872 20.6908C61.2968 21.6977 64.5955 22.8397 67.1884 24.9039C70.8819 27.8479 71.4475 31.1378 72.0471 34.6201C72.2077 35.5525 72.374 36.5182 72.607 37.5331C72.8525 38.6019 73.0618 39.6317 73.2632 40.626C74.2327 45.4199 74.934 48.8828 78.8685 51.7294C81.596 53.7031 84.4988 54.5576 87.8586 55.5473C88.4423 55.7192 89.0351 55.8933 89.6347 56.0766C90.8078 56.434 91.4718 57.686 91.1189 58.8739C90.9831 59.3413 90.7071 59.7296 90.3519 60.0056Z" fill="#896CFE"/>
<path d="M24.2207 73.4531C25.2128 77.0706 30.7525 75.5093 29.7604 71.8952C28.7705 68.28 23.2274 69.839 24.2207 73.4531Z" fill="#E2F163"/>
<path d="M154.966 45.5344C153.578 49.0099 158.907 51.1944 160.296 47.7178C161.689 44.2434 156.36 42.0544 154.966 45.5344Z" fill="white"/>
<path d="M198.574 55.352C195.709 57.7255 199.347 62.2319 202.213 59.8584C205.083 57.4872 201.445 52.9762 198.574 55.352Z" fill="#E2F163"/>
<path d="M204.73 79.3022C201.864 81.6757 205.502 86.1821 208.37 83.8075C211.239 81.4374 207.601 76.9264 204.73 79.3022Z" fill="#E2F163"/>
<path d="M168.648 62.5533C165.782 64.9268 169.42 69.4332 172.288 67.0585C175.157 64.6873 171.521 60.1775 168.648 62.5533Z" fill="#E2F163"/>
<path d="M150.174 54.5981C147.309 56.9716 150.947 61.478 153.815 59.1034C156.684 56.7322 153.047 52.2212 150.174 54.5981Z" fill="#B3A0FF"/>
<path d="M81.2287 68.3586C82.2208 71.9692 87.7594 70.4102 86.7673 66.7984C85.7786 63.182 80.2366 64.7388 81.2287 68.3586Z" fill="#E2F163"/>
<path d="M158.676 70.7485C155.81 73.122 159.448 77.6284 162.315 75.2549C165.184 72.8826 161.547 68.3716 158.676 70.7485Z" fill="#E2F163"/>
<path d="M93.1765 56.1109C91.7885 59.5863 97.1167 61.7708 98.5059 58.2942C99.8984 54.8188 94.5691 52.6308 93.1765 56.1109Z" fill="white"/>
<path d="M95.9668 18.9046C96.96 22.5164 102.497 20.9574 101.505 17.3444C100.517 13.7292 94.9746 15.286 95.9668 18.9046Z" fill="#B3A0FF"/>
<path d="M165.316 80.9262C162.451 83.2997 166.089 87.8061 168.956 85.4326C171.824 83.0614 168.186 78.5504 165.316 80.9262Z" fill="#E2F163"/>
<path d="M194.764 18.2804C193.372 21.7582 198.702 23.9404 200.091 20.4649C201.481 16.9894 196.154 14.8038 194.764 18.2804Z" fill="#B3A0FF"/>
<path d="M172.388 5.31547C170.998 8.78979 176.328 10.9754 177.717 7.4988C179.11 4.02334 173.782 1.83543 172.388 5.31547Z" fill="#E2F163"/>
<path d="M158.716 11.1754C157.328 14.6498 162.657 16.8342 164.047 13.3588C165.439 9.88103 160.109 7.69311 158.716 11.1754Z" fill="white"/>
<path d="M184.995 10.368C183.606 13.8457 188.935 16.0314 190.324 12.5548C191.718 9.07586 186.385 6.89139 184.995 10.368Z" fill="#E2F163"/>
<path d="M172.98 20.6602C170.982 23.8218 175.822 26.9547 177.816 23.7966C179.817 20.6292 174.978 17.494 172.98 20.6602Z" fill="#B3A0FF"/>
<path d="M197.902 29.8526C195.904 33.013 200.744 36.1483 202.742 32.9901C204.739 29.824 199.9 26.6853 197.902 29.8526Z" fill="#E2F163"/>
<path d="M196.451 65.9015C193.202 67.7022 195.96 72.8031 199.209 71.0047C202.466 69.1994 199.705 64.0939 196.451 65.9015Z" fill="#B3A0FF"/>
<path d="M216.62 51.7214C213.371 53.5221 216.127 58.6231 219.376 56.8246C222.63 55.017 219.873 49.9138 216.62 51.7214Z" fill="#E2F163"/>
<path d="M217.785 77.7237C214.535 79.5256 217.291 84.6254 220.543 82.8247C223.796 81.0216 221.037 75.9161 217.785 77.7237Z" fill="white"/>
<path d="M78.4484 39.0524C77.0569 42.5347 82.3829 44.7157 83.7721 41.2357C85.1624 37.7579 79.8353 35.5723 78.4484 39.0524Z" fill="#E2F163"/>
<path d="M23.9527 53.8855C24.9448 57.503 30.4812 55.9405 29.4913 52.3287C28.497 48.7101 22.9629 50.2714 23.9527 53.8855Z" fill="white"/>
<path d="M55.1791 80.6501C56.1679 84.263 61.7053 82.7051 60.7121 79.0911C59.7177 75.477 54.1882 77.036 55.1791 80.6501Z" fill="white"/>
<path d="M59.2042 58.3869C60.1963 61.9976 65.7338 60.4397 64.744 56.8279C63.7507 53.2127 58.2099 54.7729 59.2042 58.3869Z" fill="#E2F163"/>
<path d="M46.7733 39.7071C47.7654 43.3246 53.3006 41.7633 52.3085 38.1503C51.3119 34.5317 45.7767 36.0919 46.7733 39.7071Z" fill="#E2F163"/>
<path d="M42.3153 76.8996C43.3086 80.5148 48.8438 78.9546 47.8494 75.3429C46.855 71.7254 41.3209 73.2821 42.3153 76.8996Z" fill="#E2F163"/>
<path d="M180.288 51.7649C177.034 53.5622 179.795 58.6735 183.047 56.8704C186.297 55.0685 183.539 49.9619 180.288 51.7649Z" fill="#E2F163"/>
<path d="M119.949 56.2261C119.848 56.3911 119.727 56.5457 119.583 56.6877C118.633 57.6316 117.106 57.6156 116.173 56.6522C115.704 56.1665 115.237 55.6957 114.777 55.2284C111.915 52.3302 109.213 49.5913 107.287 45.5385C104.198 39.0263 105.767 33.9002 107.427 28.4728C107.735 27.4636 108.056 26.4189 108.36 25.3192C108.697 24.1016 109.074 22.9858 109.407 22.0007C110.519 18.7039 111.189 16.7153 109.919 13.6855C108.843 11.1173 106.688 8.72544 104.602 6.41152C104.035 5.78149 103.477 5.16292 102.946 4.54778C102.069 3.53286 102.176 1.98643 103.176 1.10325C104.178 0.215479 105.701 0.31972 106.577 1.33578C107.085 1.92457 107.62 2.51794 108.163 3.12048C110.411 5.61425 112.959 8.44135 114.357 11.7759C116.348 16.5252 115.192 19.9514 113.969 23.5769C113.642 24.5472 113.303 25.5506 113.002 26.6377C112.685 27.7809 112.352 28.8669 112.032 29.9161C110.482 34.9804 109.364 38.6403 111.632 43.4216C113.202 46.7253 115.512 49.0667 118.187 51.7758C118.658 52.2535 119.135 52.7358 119.616 53.2329C120.41 54.0542 120.518 55.2937 119.949 56.2261Z" fill="#896CFE"/>
<path d="M120.435 19.8463C122.626 22.8692 127.261 19.4258 125.071 16.4029C122.882 13.3764 118.242 16.8187 120.435 19.8463Z" fill="#E2F163"/>
<path d="M144.375 14.8779C146.566 17.9009 151.201 14.4575 149.01 11.4334C146.822 8.40812 142.182 11.8504 144.375 14.8779Z" fill="#E2F163"/>
<path d="M125.964 50.4843C128.155 53.5073 132.79 50.0639 130.599 47.0397C128.411 44.0145 123.773 47.4544 125.964 50.4843Z" fill="#E2F163"/>
<path d="M142.927 33.0613C144.532 36.4417 149.707 33.9205 148.104 30.5401C146.495 27.1517 141.315 29.6764 142.927 33.0613Z" fill="#B3A0FF"/>
<path d="M96.1481 32.7134C97.7533 36.0938 102.929 33.5726 101.326 30.1922C99.7172 26.8038 94.536 29.3273 96.1481 32.7134Z" fill="#B3A0FF"/>
<path d="M130.894 7.66776C132.499 11.047 137.674 8.52918 136.072 5.14879C134.46 1.76268 129.283 4.28164 130.894 7.66776Z" fill="#E2F163"/>
<path d="M81.4147 16.3773C83.0211 19.7577 88.1954 17.2388 86.5902 13.8572C84.9827 10.4711 79.8027 12.9924 81.4147 16.3773Z" fill="white"/>
<path d="M115.934 38.1482C117.536 41.532 122.721 39.0096 121.113 35.6258C119.506 32.2454 114.325 34.7666 115.934 38.1482Z" fill="#E2F163"/>
<path d="M183.284 31.631C181.284 34.7903 186.129 37.929 188.125 34.7663C190.123 31.607 185.281 28.4694 183.284 31.631Z" fill="#E2F163"/>
<path d="M130.817 30.708C129.425 34.1846 134.755 36.3691 136.146 32.8925C137.538 29.4159 132.207 27.2268 130.817 30.708Z" fill="#E2F163"/>
<path d="M62.4471 14.6375C60.4493 17.7991 65.2888 20.932 67.2832 17.7739C69.2844 14.6077 64.4449 11.4713 62.4471 14.6375Z" fill="#B3A0FF"/>
<path d="M72.7514 25.6066C70.7513 28.7659 75.5965 31.9046 77.592 28.7419C79.5898 25.5826 74.7469 22.445 72.7514 25.6066Z" fill="#E2F163"/>
<path d="M65.9413 69.7355C66.9311 73.3484 72.4686 71.7893 71.4742 68.1776C70.4833 64.5635 64.9514 66.1225 65.9413 69.7355Z" fill="#E2F163"/>
<path d="M34.4154 40.35C35.4075 43.964 40.9438 42.4027 39.9517 38.7898C38.9573 35.17 33.421 36.7313 34.4154 40.35Z" fill="#B3A0FF"/>
<path d="M39.4283 58.3833C40.4193 61.9962 45.9568 60.4383 44.9658 56.8266C43.9714 53.2148 38.4362 54.7715 39.4283 58.3833Z" fill="#B3A0FF"/>
<defs>
<clipPath id="clip0_95021_7240">
<rect width="66" height="66" fill="white" transform="translate(22 22.5)"/>
</clipPath>
</defs>
</svg>
