<svg width="40" height="40" viewBox="0 0 40 40" fill="none" xmlns="http://www.w3.org/2000/svg">
<path fill-rule="evenodd" clip-rule="evenodd" d="M40 20C40 31.0457 31.0457 40 20 40C8.95432 40 0 31.0457 0 20C0 8.95432 8.95432 0 20 0C31.0457 0 40 8.95432 40 20ZM16.4286 15C16.4286 13.0275 18.0275 11.4286 20 11.4286C21.9725 11.4286 23.5714 13.0275 23.5714 15C23.5714 16.9725 21.9725 18.5714 20 18.5714C18.8165 18.5714 17.8571 19.5308 17.8571 20.7143V22.5614C17.8571 23.7449 18.8165 24.7042 20 24.7042C21.1835 24.7042 22.1429 23.7449 22.1429 22.5614C25.4407 21.6286 27.8571 18.5965 27.8571 15C27.8571 10.6606 24.3394 7.14286 20 7.14286C15.6606 7.14286 12.1429 10.6606 12.1429 15C12.1429 16.1835 13.1023 17.1429 14.2857 17.1429C15.4692 17.1429 16.4286 16.1835 16.4286 15ZM22.8571 30C22.8571 31.578 21.578 32.8571 20 32.8571C18.422 32.8571 17.1429 31.578 17.1429 30C17.1429 28.422 18.422 27.1429 20 27.1429C21.578 27.1429 22.8571 28.422 22.8571 30Z" fill="#8571FF"/>
</svg>
