<svg width="31" height="30" viewBox="0 0 31 30" fill="none" xmlns="http://www.w3.org/2000/svg">
<path d="M24.4167 10C26.4877 10 28.1667 8.32107 28.1667 6.25C28.1667 4.17893 26.4877 2.5 24.4167 2.5C22.3456 2.5 20.6667 4.17893 20.6667 6.25C20.6667 8.32107 22.3456 10 24.4167 10Z" fill="white"/>
<path d="M25.4167 11.775C25.3917 11.775 25.3667 11.7875 25.3417 11.7875C25.2167 11.8125 25.0917 11.825 24.9542 11.85C24.4292 11.9 23.8667 11.875 23.2917 11.7625C23.1417 11.725 23.0167 11.7 22.8792 11.65C22.4667 11.55 22.0792 11.3875 21.7167 11.175C21.5667 11.1 21.4167 11 21.2792 10.9125C20.6792 10.5 20.1667 9.9875 19.7542 9.3875C19.6667 9.25 19.5667 9.1 19.4917 8.95C19.2792 8.5875 19.1167 8.2 19.0167 7.7875C18.9667 7.65 18.9417 7.525 18.9042 7.375C18.7917 6.8 18.7667 6.2375 18.8167 5.7125C18.8417 5.575 18.8542 5.45 18.8792 5.325C18.8792 5.3 18.8917 5.275 18.8917 5.25C19.0417 4.475 18.4667 3.75 17.6667 3.75H10.0667C9.89166 3.75 9.71666 3.7625 9.55416 3.775C9.40416 3.7875 9.26666 3.8 9.11666 3.825C8.96666 3.8375 8.81666 3.8625 8.67916 3.8875C5.66666 4.325 3.74166 6.2375 3.30416 9.2625C3.27916 9.4 3.25416 9.55 3.24166 9.7C3.21666 9.85 3.20416 9.9875 3.19166 10.1375C3.17916 10.3 3.16666 10.475 3.16666 10.65V20.6C3.16666 20.775 3.17916 20.95 3.19166 21.1125C3.20416 21.2625 3.21666 21.4 3.24166 21.55C3.25416 21.7 3.27916 21.85 3.30416 21.9875C3.74166 25.0125 5.66666 26.925 8.67916 27.3625C8.81666 27.3875 8.96666 27.4125 9.11666 27.425C9.26666 27.45 9.40416 27.4625 9.55416 27.475C9.71666 27.4875 9.89166 27.5 10.0667 27.5H20.0167C20.1917 27.5 20.3667 27.4875 20.5292 27.475C20.6792 27.4625 20.8167 27.45 20.9667 27.425C21.1167 27.4125 21.2667 27.3875 21.4042 27.3625C24.4167 26.925 26.3417 25.0125 26.7792 21.9875C26.8042 21.85 26.8292 21.7 26.8417 21.55C26.8667 21.4 26.8792 21.2625 26.8917 21.1125C26.9042 20.95 26.9167 20.775 26.9167 20.6V13C26.9167 12.2 26.1917 11.625 25.4167 11.775ZM9.10416 15.625H15.3542C15.8667 15.625 16.2917 16.05 16.2917 16.5625C16.2917 17.075 15.8667 17.5 15.3542 17.5H9.10416C8.59166 17.5 8.16666 17.075 8.16666 16.5625C8.16666 16.05 8.59166 15.625 9.10416 15.625ZM20.3542 22.5H9.10416C8.59166 22.5 8.16666 22.075 8.16666 21.5625C8.16666 21.05 8.59166 20.625 9.10416 20.625H20.3542C20.8667 20.625 21.2917 21.05 21.2917 21.5625C21.2917 22.075 20.8667 22.5 20.3542 22.5Z" fill="white"/>
</svg>
