<svg width="30" height="30" viewBox="0 0 30 30" fill="none" xmlns="http://www.w3.org/2000/svg">
<path d="M11.4297 25.9776V22.1441C11.4296 21.1726 12.2196 20.3834 13.198 20.3773H16.7908C17.7736 20.3773 18.5703 21.1683 18.5703 22.1441V25.9665C18.5703 26.8091 19.255 27.4939 20.1037 27.5H22.5548C23.6995 27.5029 24.7984 27.0535 25.609 26.2509C26.4195 25.4483 26.875 24.3584 26.875 23.2219V12.3323C26.875 11.4142 26.4651 10.5434 25.7558 9.95438L17.4287 3.34284C15.9731 2.1864 13.8942 2.22376 12.4817 3.43173L4.33377 9.95438C3.59093 10.526 3.14694 11.3995 3.125 12.3323V23.2108C3.125 25.5796 5.05923 27.5 7.44522 27.5H9.84036C10.249 27.5029 10.6419 27.3438 10.9318 27.058C11.2218 26.7722 11.3849 26.3833 11.3849 25.9776H11.4297Z" fill="white" stroke="white" stroke-width="2"/>
</svg>
