<svg width="15" height="15" viewBox="0 0 15 15" fill="none" xmlns="http://www.w3.org/2000/svg">
<mask id="mask0_95022_4229" style="mask-type:alpha" maskUnits="userSpaceOnUse" x="0" y="0" width="15" height="15">
<rect width="15" height="15" fill="#D9D9D9"/>
</mask>
<g mask="url(#mask0_95022_4229)">
<mask id="mask1_95022_4229" style="mask-type:alpha" maskUnits="userSpaceOnUse" x="0" y="0" width="15" height="15">
<rect width="15" height="15" fill="#D9D9D9"/>
</mask>
<g mask="url(#mask1_95022_4229)">
<path d="M7.5 9.375C8.02083 9.375 8.46354 9.19271 8.82812 8.82812C9.19271 8.46354 9.375 8.02083 9.375 7.5C9.375 6.97917 9.19271 6.53646 8.82812 6.17188C8.46354 5.80729 8.02083 5.625 7.5 5.625C6.97917 5.625 6.53646 5.80729 6.17188 6.17188C5.80729 6.53646 5.625 6.97917 5.625 7.5C5.625 8.02083 5.80729 8.46354 6.17188 8.82812C6.53646 9.19271 6.97917 9.375 7.5 9.375ZM7.5 10.625C6.63542 10.625 5.89844 10.3203 5.28906 9.71094C4.67969 9.10156 4.375 8.36458 4.375 7.5C4.375 6.63542 4.67969 5.89844 5.28906 5.28906C5.89844 4.67969 6.63542 4.375 7.5 4.375C8.36458 4.375 9.10156 4.67969 9.71094 5.28906C10.3203 5.89844 10.625 6.63542 10.625 7.5C10.625 8.36458 10.3203 9.10156 9.71094 9.71094C9.10156 10.3203 8.36458 10.625 7.5 10.625ZM3.125 8.125H0.625V6.875H3.125V8.125ZM14.375 8.125H11.875V6.875H14.375V8.125ZM6.875 3.125V0.625H8.125V3.125H6.875ZM6.875 14.375V11.875H8.125V14.375H6.875ZM4 4.84375L2.42188 3.32813L3.3125 2.40625L4.8125 3.96875L4 4.84375ZM11.6875 12.5938L10.1719 11.0156L11 10.1562L12.5781 11.6719L11.6875 12.5938ZM10.1562 4L11.6719 2.42188L12.5938 3.3125L11.0312 4.8125L10.1562 4ZM2.40625 11.6875L3.98438 10.1719L4.84375 11L3.32813 12.5781L2.40625 11.6875Z" fill="#1C1B1F"/>
</g>
</g>
</svg>
