<svg width="28" height="28" viewBox="0 0 28 28" fill="none" xmlns="http://www.w3.org/2000/svg">
<mask id="mask0_95022_4171" style="mask-type:alpha" maskUnits="userSpaceOnUse" x="0" y="0" width="28" height="28">
<rect width="28" height="28" fill="#D9D9D9"/>
</mask>
<g mask="url(#mask0_95022_4171)">
<mask id="mask1_95022_4171" style="mask-type:alpha" maskUnits="userSpaceOnUse" x="2" y="2" width="24" height="24">
<rect x="2" y="2" width="24" height="24" fill="#D9D9D9"/>
</mask>
<g mask="url(#mask1_95022_4171)">
<path d="M14 24C12.2333 24 10.7917 23.7208 9.675 23.1625C8.55833 22.6042 8 21.8833 8 21C8 20.4167 8.24167 19.9083 8.725 19.475C9.20833 19.0417 9.875 18.7 10.725 18.45L11.3 20.35C11.0167 20.4333 10.7583 20.5375 10.525 20.6625C10.2917 20.7875 10.1333 20.9 10.05 21C10.2667 21.2667 10.7667 21.5 11.55 21.7C12.3333 21.9 13.15 22 14 22C14.85 22 15.6708 21.9 16.4625 21.7C17.2542 21.5 17.7583 21.2667 17.975 21C17.8917 20.9 17.7333 20.7875 17.5 20.6625C17.2667 20.5375 17.0083 20.4333 16.725 20.35L17.3 18.45C18.15 18.7 18.8125 19.0417 19.2875 19.475C19.7625 19.9083 20 20.4167 20 21C20 21.8833 19.4417 22.6042 18.325 23.1625C17.2083 23.7208 15.7667 24 14 24ZM14 17.325C14.3 16.775 14.6167 16.2708 14.95 15.8125C15.2833 15.3542 15.6083 14.9167 15.925 14.5C16.5417 13.7 17.0333 12.9792 17.4 12.3375C17.7667 11.6958 17.95 10.9 17.95 9.95C17.95 8.85 17.5667 7.91667 16.8 7.15C16.0333 6.38333 15.1 6 14 6C12.9 6 11.9667 6.38333 11.2 7.15C10.4333 7.91667 10.05 8.85 10.05 9.95C10.05 10.9 10.2333 11.6958 10.6 12.3375C10.9667 12.9792 11.4583 13.7 12.075 14.5C12.3917 14.9167 12.7167 15.3542 13.05 15.8125C13.3833 16.2708 13.7 16.775 14 17.325ZM14 21C13.8167 21 13.65 20.9458 13.5 20.8375C13.35 20.7292 13.2417 20.5833 13.175 20.4C12.7917 19.2167 12.3083 18.225 11.725 17.425C11.1417 16.625 10.575 15.8583 10.025 15.125C9.49167 14.3917 9.02917 13.6333 8.6375 12.85C8.24583 12.0667 8.05 11.1 8.05 9.95C8.05 8.28333 8.625 6.875 9.775 5.725C10.925 4.575 12.3333 4 14 4C15.6667 4 17.075 4.575 18.225 5.725C19.375 6.875 19.95 8.28333 19.95 9.95C19.95 11.1 19.7583 12.0667 19.375 12.85C18.9917 13.6333 18.525 14.3917 17.975 15.125C17.4417 15.8583 16.8792 16.625 16.2875 17.425C15.6958 18.225 15.2083 19.2167 14.825 20.4C14.7583 20.5833 14.65 20.7292 14.5 20.8375C14.35 20.9458 14.1833 21 14 21ZM14 12.075C14.5833 12.075 15.0833 11.8667 15.5 11.45C15.9167 11.0333 16.125 10.5333 16.125 9.95C16.125 9.36667 15.9167 8.86667 15.5 8.45C15.0833 8.03333 14.5833 7.825 14 7.825C13.4167 7.825 12.9167 8.03333 12.5 8.45C12.0833 8.86667 11.875 9.36667 11.875 9.95C11.875 10.5333 12.0833 11.0333 12.5 11.45C12.9167 11.8667 13.4167 12.075 14 12.075Z" fill="#5D4FB3"/>
</g>
</g>
</svg>
