<svg width="28" height="28" viewBox="0 0 28 28" fill="none" xmlns="http://www.w3.org/2000/svg">
<mask id="mask0_95022_4149" style="mask-type:alpha" maskUnits="userSpaceOnUse" x="0" y="0" width="28" height="28">
<rect width="28" height="28" fill="#D9D9D9"/>
</mask>
<g mask="url(#mask0_95022_4149)">
<mask id="mask1_95022_4149" style="mask-type:alpha" maskUnits="userSpaceOnUse" x="2" y="2" width="24" height="24">
<rect x="2" y="2" width="24" height="24" fill="#D9D9D9"/>
</mask>
<g mask="url(#mask1_95022_4149)">
<path d="M8 16C8 16.8667 8.175 17.6875 8.525 18.4625C8.875 19.2375 9.375 19.9167 10.025 20.5C10.0083 20.4167 10 20.3417 10 20.275V20.05C10 19.5167 10.1 19.0167 10.3 18.55C10.5 18.0833 10.7917 17.6583 11.175 17.275L14 14.5L16.825 17.275C17.2083 17.6583 17.5 18.0833 17.7 18.55C17.9 19.0167 18 19.5167 18 20.05V20.275C18 20.3417 17.9917 20.4167 17.975 20.5C18.625 19.9167 19.125 19.2375 19.475 18.4625C19.825 17.6875 20 16.8667 20 16C20 15.1667 19.8458 14.3792 19.5375 13.6375C19.2292 12.8958 18.7833 12.2333 18.2 11.65C17.8667 11.8667 17.5167 12.0292 17.15 12.1375C16.7833 12.2458 16.4083 12.3 16.025 12.3C14.9917 12.3 14.0958 11.9583 13.3375 11.275C12.5792 10.5917 12.1417 9.75 12.025 8.75C11.375 9.3 10.8 9.87083 10.3 10.4625C9.8 11.0542 9.37917 11.6542 9.0375 12.2625C8.69583 12.8708 8.4375 13.4917 8.2625 14.125C8.0875 14.7583 8 15.3833 8 16ZM14 17.3L12.575 18.7C12.3917 18.8833 12.25 19.0917 12.15 19.325C12.05 19.5583 12 19.8 12 20.05C12 20.5833 12.1958 21.0417 12.5875 21.425C12.9792 21.8083 13.45 22 14 22C14.55 22 15.0208 21.8083 15.4125 21.425C15.8042 21.0417 16 20.5833 16 20.05C16 19.7833 15.95 19.5375 15.85 19.3125C15.75 19.0875 15.6083 18.8833 15.425 18.7L14 17.3ZM14 5V8.3C14 8.86667 14.1958 9.34167 14.5875 9.725C14.9792 10.1083 15.4583 10.3 16.025 10.3C16.325 10.3 16.6042 10.2375 16.8625 10.1125C17.1208 9.9875 17.35 9.8 17.55 9.55L18 9C19.2333 9.7 20.2083 10.675 20.925 11.925C21.6417 13.175 22 14.5333 22 16C22 18.2333 21.225 20.125 19.675 21.675C18.125 23.225 16.2333 24 14 24C11.7667 24 9.875 23.225 8.325 21.675C6.775 20.125 6 18.2333 6 16C6 13.85 6.72083 11.8083 8.1625 9.875C9.60417 7.94167 11.55 6.31667 14 5Z" fill="#5D4FB3"/>
</g>
</g>
</svg>
