<svg width="18" height="18" viewBox="0 0 18 18" fill="none" xmlns="http://www.w3.org/2000/svg">
<circle cx="9" cy="9" r="9" fill="#896CFE"/>
<path d="M8.44663 4.43211L12.5183 7.20197C12.7834 7.38246 12.9984 7.61548 13.1464 7.88278C13.2944 8.15009 13.3714 8.44446 13.3714 8.74288C13.3714 9.04129 13.2944 9.3356 13.1464 9.60291C12.9984 9.87022 12.7834 10.1032 12.5183 10.2837L8.44663 13.0559C8.18848 13.2308 7.8811 13.3378 7.55888 13.3647C7.23667 13.3916 6.91235 13.3374 6.62258 13.2083C6.33281 13.0792 6.08898 12.8802 5.91843 12.6337C5.74789 12.3872 5.65738 12.1029 5.65714 11.8129V5.67281C5.65689 5.38259 5.74713 5.09807 5.91767 4.85137C6.0882 4.60467 6.33228 4.4056 6.62232 4.2766C6.91237 4.14759 7.23692 4.09377 7.55927 4.12125C7.88161 4.14873 8.18892 4.25641 8.44663 4.43211Z" fill="white"/>
</svg>
