<svg width="24" height="24" viewBox="0 0 24 24" fill="none" xmlns="http://www.w3.org/2000/svg">
<g clip-path="url(#clip0_95196_1500)">
<path fill-rule="evenodd" clip-rule="evenodd" d="M3.81555 14.6878C3.74533 15.0005 3.85542 15.3262 4.10091 15.5322L6.27453 17.3561C6.63716 17.6604 7.17781 17.6131 7.4821 17.2505C7.78639 16.8878 7.73909 16.3472 7.37646 16.0429L6.47261 15.2845L9.91447 14.3822C10.2245 14.301 10.4632 14.0536 10.5334 13.7409C10.6037 13.4282 10.4936 13.1025 10.2481 12.8965L7.80283 10.8447C7.44021 10.5404 6.89954 10.5877 6.59526 10.9503C6.29097 11.313 6.33829 11.8536 6.70091 12.1579L7.87642 13.1443L4.43454 14.0465C4.12453 14.1277 3.88576 14.3751 3.81555 14.6878ZM10.7969 15.3794C10.7267 15.6921 10.8368 16.0178 11.0823 16.2238L13.4039 18.1719C13.7666 18.4762 14.3072 18.4289 14.6115 18.0663C14.9158 17.7037 14.8685 17.163 14.5059 16.8587L13.4539 15.9761L17.2395 14.9837C17.5495 14.9025 17.7883 14.6551 17.8585 14.3424C17.9287 14.0297 17.8186 13.704 17.5731 13.498L14.9613 11.3064C14.5986 11.0021 14.058 11.0494 13.7537 11.412C13.4494 11.7747 13.4967 12.3153 13.8593 12.6196L15.2015 13.7458L11.4159 14.7381C11.1059 14.8194 10.8671 15.0668 10.7969 15.3794ZM7.5824 8.34921C7.33692 8.14322 7.22692 7.81756 7.29713 7.50487C7.36726 7.19213 7.60603 6.94472 7.91604 6.86348L13.653 5.35967L11.3651 3.43988C11.0025 3.13561 10.9552 2.59494 11.2594 2.23231C11.5637 1.86969 12.1044 1.82239 12.467 2.12666L16.0247 5.11189C16.2702 5.31788 16.3802 5.64359 16.31 5.95629C16.2399 6.26891 16.001 6.51637 15.6911 6.59761L9.95412 8.10147L11.8467 9.68956C12.2094 9.99385 12.2567 10.5345 11.9524 10.8971C11.6481 11.2598 11.1074 11.3071 10.7448 11.0028L7.5824 8.34921Z" fill="black"/>
</g>
<defs>
<clipPath id="clip0_95196_1500">
<rect width="16" height="16" fill="white" transform="translate(12.9861 23.2705) rotate(-140)"/>
</clipPath>
</defs>
</svg>
